<svg width="83" height="83" viewBox="0 0 83 83" fill="none" xmlns="http://www.w3.org/2000/svg">
<g filter="url(#filter0_d_2515_393)">
<rect x="4" width="75" height="75" rx="15" fill="#F2F2F2"/>
</g>
<path d="M53.2083 16.0833H50.125V14.5417C50.125 14.1328 49.9626 13.7407 49.6735 13.4515C49.3843 13.1624 48.9922 13 48.5833 13C48.1745 13 47.7823 13.1624 47.4932 13.4515C47.2041 13.7407 47.0417 14.1328 47.0417 14.5417V16.0833H37.7917V14.5417C37.7917 14.1328 37.6292 13.7407 37.3401 13.4515C37.051 13.1624 36.6589 13 36.25 13C35.8411 13 35.449 13.1624 35.1599 13.4515C34.8708 13.7407 34.7083 14.1328 34.7083 14.5417V16.0833H31.625C30.3984 16.0833 29.222 16.5706 28.3546 17.438C27.4873 18.3053 27 19.4817 27 20.7083V39.2083C27 40.435 27.4873 41.6113 28.3546 42.4787C29.222 43.3461 30.3984 43.8333 31.625 43.8333H53.2083C54.435 43.8333 55.6113 43.3461 56.4787 42.4787C57.3461 41.6113 57.8333 40.435 57.8333 39.2083V20.7083C57.8333 19.4817 57.3461 18.3053 56.4787 17.438C55.6113 16.5706 54.435 16.0833 53.2083 16.0833ZM54.75 39.2083C54.75 39.6172 54.5876 40.0093 54.2985 40.2985C54.0093 40.5876 53.6172 40.75 53.2083 40.75H31.625C31.2161 40.75 30.824 40.5876 30.5349 40.2985C30.2458 40.0093 30.0833 39.6172 30.0833 39.2083V28.4167H54.75V39.2083ZM54.75 25.3333H30.0833V20.7083C30.0833 20.2995 30.2458 19.9073 30.5349 19.6182C30.824 19.3291 31.2161 19.1667 31.625 19.1667H34.7083V20.7083C34.7083 21.1172 34.8708 21.5093 35.1599 21.7985C35.449 22.0876 35.8411 22.25 36.25 22.25C36.6589 22.25 37.051 22.0876 37.3401 21.7985C37.6292 21.5093 37.7917 21.1172 37.7917 20.7083V19.1667H47.0417V20.7083C47.0417 21.1172 47.2041 21.5093 47.4932 21.7985C47.7823 22.0876 48.1745 22.25 48.5833 22.25C48.9922 22.25 49.3843 22.0876 49.6735 21.7985C49.9626 21.5093 50.125 21.1172 50.125 20.7083V19.1667H53.2083C53.6172 19.1667 54.0093 19.3291 54.2985 19.6182C54.5876 19.9073 54.75 20.2995 54.75 20.7083V25.3333Z" fill="#5A8DC6"/>
<path d="M30.4688 58.0856H27.2412L26.4014 59.9167H25.1758L28.9062 51.904L32.5049 59.9167H31.2598L30.4688 58.0856ZM30.0049 57.0163L28.8867 54.4528L27.7148 57.0163H30.0049ZM37.8418 59.8044C37.8418 60.029 37.8337 60.2259 37.8174 60.3952C37.8044 60.5677 37.7848 60.7191 37.7588 60.8493C37.6807 61.2074 37.5277 61.515 37.2998 61.7722C36.8701 62.2669 36.2793 62.5143 35.5273 62.5143C34.8926 62.5143 34.3701 62.3434 33.96 62.0016C33.5368 61.6501 33.2926 61.1634 33.2275 60.5417H34.3311C34.3734 60.7761 34.4434 60.9567 34.541 61.0837C34.7689 61.3799 35.1009 61.528 35.5371 61.528C36.3411 61.528 36.7432 61.0349 36.7432 60.0485V59.3845C36.307 59.8304 35.804 60.0534 35.2344 60.0534C34.5866 60.0534 34.056 59.819 33.6426 59.3503C33.2259 58.875 33.0176 58.2809 33.0176 57.5681C33.0176 56.8747 33.2113 56.2855 33.5986 55.8005C34.0153 55.2862 34.5654 55.029 35.249 55.029C35.848 55.029 36.346 55.252 36.7432 55.6979V55.1608H37.8418V59.8044ZM36.7871 57.5485C36.7871 57.0863 36.6634 56.7168 36.416 56.4401C36.1654 56.1569 35.8447 56.0153 35.4541 56.0153C35.0374 56.0153 34.7087 56.1699 34.4678 56.4792C34.2497 56.7559 34.1406 57.114 34.1406 57.5534C34.1406 57.9863 34.2497 58.3412 34.4678 58.6179C34.7054 58.9206 35.0342 59.072 35.4541 59.072C35.874 59.072 36.2061 58.919 36.4502 58.613C36.6748 58.3363 36.7871 57.9815 36.7871 57.5485ZM43.5596 57.7975H40.1514C40.1807 58.1882 40.3076 58.499 40.5322 58.7302C40.7568 58.958 41.0449 59.072 41.3965 59.072C41.6699 59.072 41.8962 59.0069 42.0752 58.8766C42.251 58.7464 42.4512 58.5056 42.6758 58.154L43.6035 58.6716C43.4603 58.9157 43.3089 59.1257 43.1494 59.3015C42.9899 59.474 42.819 59.6172 42.6367 59.7311C42.4544 59.8418 42.2575 59.9232 42.0459 59.9753C41.8343 60.0274 41.6048 60.0534 41.3574 60.0534C40.6478 60.0534 40.0781 59.8255 39.6484 59.3698C39.2188 58.9108 39.0039 58.3021 39.0039 57.5436C39.0039 56.7917 39.2122 56.183 39.6289 55.7175C40.0488 55.2585 40.6055 55.029 41.2988 55.029C41.9987 55.029 42.5521 55.252 42.959 55.6979C43.3626 56.1406 43.5645 56.7543 43.5645 57.5388L43.5596 57.7975ZM42.4316 56.8991C42.2786 56.3132 41.9092 56.0202 41.3232 56.0202C41.1898 56.0202 41.0645 56.0414 40.9473 56.0837C40.8301 56.1227 40.7227 56.1813 40.625 56.2595C40.5306 56.3343 40.4492 56.4255 40.3809 56.5329C40.3125 56.6403 40.2604 56.7624 40.2246 56.8991H42.4316ZM44.7656 55.1608H45.8691V55.6003C46.2533 55.2194 46.6862 55.029 47.168 55.029C47.7214 55.029 48.1527 55.2031 48.4619 55.5515C48.7288 55.8477 48.8623 56.3311 48.8623 57.0016V59.9167H47.7588V57.2604C47.7588 56.7917 47.6937 56.4678 47.5635 56.2888C47.4365 56.1065 47.2054 56.0153 46.8701 56.0153C46.5055 56.0153 46.2467 56.1358 46.0938 56.3766C45.944 56.6143 45.8691 57.0293 45.8691 57.6218V59.9167H44.7656V55.1608ZM53.9551 55.3659V56.8259C53.7044 56.5199 53.4798 56.3099 53.2812 56.196C53.0859 56.0788 52.8564 56.0202 52.5928 56.0202C52.1794 56.0202 51.8359 56.1651 51.5625 56.4548C51.2891 56.7445 51.1523 57.1074 51.1523 57.5436C51.1523 57.9896 51.2842 58.3558 51.5479 58.6423C51.8148 58.9287 52.1549 59.072 52.5684 59.072C52.832 59.072 53.0648 59.015 53.2666 58.9011C53.4619 58.7904 53.6914 58.5755 53.9551 58.2565V59.7067C53.5091 59.9378 53.0632 60.0534 52.6172 60.0534C51.8815 60.0534 51.2663 59.8158 50.7715 59.3405C50.2767 58.862 50.0293 58.2679 50.0293 57.5583C50.0293 56.8487 50.2799 56.2497 50.7812 55.7614C51.2826 55.2731 51.8978 55.029 52.627 55.029C53.0957 55.029 53.5384 55.1413 53.9551 55.3659ZM59.3506 57.7975H55.9424C55.9717 58.1882 56.0986 58.499 56.3232 58.7302C56.5479 58.958 56.8359 59.072 57.1875 59.072C57.4609 59.072 57.6872 59.0069 57.8662 58.8766C58.042 58.7464 58.2422 58.5056 58.4668 58.154L59.3945 58.6716C59.2513 58.9157 59.0999 59.1257 58.9404 59.3015C58.7809 59.474 58.61 59.6172 58.4277 59.7311C58.2454 59.8418 58.0485 59.9232 57.8369 59.9753C57.6253 60.0274 57.3958 60.0534 57.1484 60.0534C56.4388 60.0534 55.8691 59.8255 55.4395 59.3698C55.0098 58.9108 54.7949 58.3021 54.7949 57.5436C54.7949 56.7917 55.0033 56.183 55.4199 55.7175C55.8398 55.2585 56.3965 55.029 57.0898 55.029C57.7897 55.029 58.3431 55.252 58.75 55.6979C59.1536 56.1406 59.3555 56.7543 59.3555 57.5388L59.3506 57.7975ZM58.2227 56.8991C58.0697 56.3132 57.7002 56.0202 57.1143 56.0202C56.9808 56.0202 56.8555 56.0414 56.7383 56.0837C56.6211 56.1227 56.5137 56.1813 56.416 56.2595C56.3216 56.3343 56.2402 56.4255 56.1719 56.5329C56.1035 56.6403 56.0514 56.7624 56.0156 56.8991H58.2227Z" fill="#5A8DC6"/>
<defs>
<filter id="filter0_d_2515_393" x="0" y="0" width="83" height="83" filterUnits="userSpaceOnUse" color-interpolation-filters="sRGB">
<feFlood flood-opacity="0" result="BackgroundImageFix"/>
<feColorMatrix in="SourceAlpha" type="matrix" values="0 0 0 0 0 0 0 0 0 0 0 0 0 0 0 0 0 0 127 0" result="hardAlpha"/>
<feOffset dy="4"/>
<feGaussianBlur stdDeviation="2"/>
<feComposite in2="hardAlpha" operator="out"/>
<feColorMatrix type="matrix" values="0 0 0 0 0 0 0 0 0 0 0 0 0 0 0 0 0 0 0.07 0"/>
<feBlend mode="normal" in2="BackgroundImageFix" result="effect1_dropShadow_2515_393"/>
<feBlend mode="normal" in="SourceGraphic" in2="effect1_dropShadow_2515_393" result="shape"/>
</filter>
</defs>
</svg>
