<svg width="83" height="83" viewBox="0 0 83 83" fill="none" xmlns="http://www.w3.org/2000/svg">
<g filter="url(#filter0_d_2515_384)">
<rect x="4" width="75" height="75" rx="15" fill="#F2F2F2"/>
</g>
<path d="M34.7436 34.1323C31.5177 30.9001 29.0368 27.0022 27.4746 22.7113C26.6151 20.3653 27.4026 17.7883 29.1696 16.0213L30.2631 14.9293C30.557 14.6347 30.9062 14.401 31.2906 14.2415C31.6751 14.0821 32.0871 14 32.5033 14C32.9195 14 33.3316 14.0821 33.716 14.2415C34.1004 14.401 34.4496 14.6347 34.7436 14.9293L37.3041 17.4898C37.5986 17.7837 37.8323 18.1329 37.9918 18.5173C38.1512 18.9018 38.2333 19.3138 38.2333 19.73C38.2333 20.1462 38.1512 20.5583 37.9918 20.9427C37.8323 21.3271 37.5986 21.6763 37.3041 21.9703L36.6741 22.6003C36.4219 22.8524 36.2218 23.1517 36.0854 23.4811C35.9489 23.8106 35.8786 24.1637 35.8786 24.5203C35.8786 24.8769 35.9489 25.2299 36.0854 25.5594C36.2218 25.8888 36.4219 26.1881 36.6741 26.4403L42.4341 32.2018C42.6862 32.4539 42.9855 32.654 43.3149 32.7905C43.6444 32.9269 43.9975 32.9972 44.3541 32.9972C44.7106 32.9972 45.0637 32.9269 45.3932 32.7905C45.7226 32.654 46.0219 32.4539 46.2741 32.2018L46.9056 31.5718C47.1995 31.2772 47.5487 31.0435 47.9331 30.884C48.3176 30.7246 48.7296 30.6425 49.1458 30.6425C49.562 30.6425 49.9741 30.7246 50.3585 30.884C50.7429 31.0435 51.0921 31.2772 51.3861 31.5718L53.9466 34.1323C54.2411 34.4262 54.4748 34.7754 54.6343 35.1598C54.7937 35.5443 54.8758 35.9563 54.8758 36.3725C54.8758 36.7887 54.7937 37.2008 54.6343 37.5852C54.4748 37.9696 54.2411 38.3188 53.9466 38.6128L52.8546 39.7048C51.0876 41.4733 48.5106 42.2608 46.1646 41.4013C41.8736 39.839 37.9757 37.3582 34.7436 34.1323Z" stroke="#5A8DC6" stroke-width="2" stroke-linejoin="round"/>
<path d="M28.4775 58.1689H25.25L24.4102 60H23.1846L26.915 51.9873L30.5137 60H29.2686L28.4775 58.1689ZM28.0137 57.0996L26.8955 54.5361L25.7236 57.0996H28.0137ZM32.3496 62.5879H31.251V55.2441H32.3496V55.7617C32.7826 55.3288 33.2741 55.1123 33.8242 55.1123C34.4785 55.1123 35.0173 55.3532 35.4404 55.835C35.8701 56.3135 36.085 56.9173 36.085 57.6465C36.085 58.3594 35.8717 58.9535 35.4453 59.4287C35.0221 59.9007 34.4883 60.1367 33.8438 60.1367C33.2871 60.1367 32.7891 59.9137 32.3496 59.4678V62.5879ZM34.9619 57.6514C34.9619 57.1956 34.8382 56.8245 34.5908 56.5381C34.3402 56.2484 34.0244 56.1035 33.6436 56.1035C33.2399 56.1035 32.9128 56.2435 32.6621 56.5234C32.4115 56.8034 32.2861 57.1712 32.2861 57.627C32.2861 58.0729 32.4115 58.4408 32.6621 58.7305C32.9095 59.0137 33.235 59.1553 33.6387 59.1553C34.0195 59.1553 34.3337 59.012 34.5811 58.7256C34.835 58.4391 34.9619 58.0811 34.9619 57.6514ZM38.3457 62.5879H37.2471V55.2441H38.3457V55.7617C38.7786 55.3288 39.2702 55.1123 39.8203 55.1123C40.4746 55.1123 41.0133 55.3532 41.4365 55.835C41.8662 56.3135 42.0811 56.9173 42.0811 57.6465C42.0811 58.3594 41.8678 58.9535 41.4414 59.4287C41.0182 59.9007 40.4844 60.1367 39.8398 60.1367C39.2832 60.1367 38.7852 59.9137 38.3457 59.4678V62.5879ZM40.958 57.6514C40.958 57.1956 40.8343 56.8245 40.5869 56.5381C40.3363 56.2484 40.0205 56.1035 39.6396 56.1035C39.236 56.1035 38.9089 56.2435 38.6582 56.5234C38.4076 56.8034 38.2822 57.1712 38.2822 57.627C38.2822 58.0729 38.4076 58.4408 38.6582 58.7305C38.9056 59.0137 39.2311 59.1553 39.6348 59.1553C40.0156 59.1553 40.3298 59.012 40.5771 58.7256C40.8311 58.4391 40.958 58.0811 40.958 57.6514ZM47.5742 57.8809H44.166C44.1953 58.2715 44.3223 58.5824 44.5469 58.8135C44.7715 59.0413 45.0596 59.1553 45.4111 59.1553C45.6846 59.1553 45.9108 59.0902 46.0898 58.96C46.2656 58.8298 46.4658 58.5889 46.6904 58.2373L47.6182 58.7549C47.4749 58.999 47.3236 59.209 47.1641 59.3848C47.0046 59.5573 46.8337 59.7005 46.6514 59.8145C46.4691 59.9251 46.2721 60.0065 46.0605 60.0586C45.849 60.1107 45.6195 60.1367 45.3721 60.1367C44.6624 60.1367 44.0928 59.9089 43.6631 59.4531C43.2334 58.9941 43.0186 58.3854 43.0186 57.627C43.0186 56.875 43.2269 56.2663 43.6436 55.8008C44.0635 55.3418 44.6201 55.1123 45.3135 55.1123C46.0133 55.1123 46.5667 55.3353 46.9736 55.7812C47.3773 56.224 47.5791 56.8376 47.5791 57.6221L47.5742 57.8809ZM46.4463 56.9824C46.2933 56.3965 45.9238 56.1035 45.3379 56.1035C45.2044 56.1035 45.0791 56.1247 44.9619 56.167C44.8447 56.2061 44.7373 56.2646 44.6396 56.3428C44.5452 56.4176 44.4639 56.5088 44.3955 56.6162C44.3271 56.7236 44.2751 56.8457 44.2393 56.9824H46.4463ZM49.8789 51.7529V60H48.7803V51.7529H49.8789ZM55.6016 57.8809H52.1934C52.2227 58.2715 52.3496 58.5824 52.5742 58.8135C52.7988 59.0413 53.0869 59.1553 53.4385 59.1553C53.7119 59.1553 53.9382 59.0902 54.1172 58.96C54.293 58.8298 54.4932 58.5889 54.7178 58.2373L55.6455 58.7549C55.5023 58.999 55.3509 59.209 55.1914 59.3848C55.0319 59.5573 54.861 59.7005 54.6787 59.8145C54.4964 59.9251 54.2995 60.0065 54.0879 60.0586C53.8763 60.1107 53.6468 60.1367 53.3994 60.1367C52.6898 60.1367 52.1201 59.9089 51.6904 59.4531C51.2607 58.9941 51.0459 58.3854 51.0459 57.627C51.0459 56.875 51.2542 56.2663 51.6709 55.8008C52.0908 55.3418 52.6475 55.1123 53.3408 55.1123C54.0407 55.1123 54.5941 55.3353 55.001 55.7812C55.4046 56.224 55.6064 56.8376 55.6064 57.6221L55.6016 57.8809ZM54.4736 56.9824C54.3206 56.3965 53.9512 56.1035 53.3652 56.1035C53.2318 56.1035 53.1064 56.1247 52.9893 56.167C52.8721 56.2061 52.7646 56.2646 52.667 56.3428C52.5726 56.4176 52.4912 56.5088 52.4229 56.6162C52.3545 56.7236 52.3024 56.8457 52.2666 56.9824H54.4736ZM56.8076 55.2441H57.9062V55.6689C58.1081 55.4574 58.2871 55.3125 58.4434 55.2344C58.6029 55.153 58.7917 55.1123 59.0098 55.1123C59.2995 55.1123 59.6022 55.2067 59.918 55.3955L59.415 56.4014C59.2067 56.2516 59.0033 56.1768 58.8047 56.1768C58.2057 56.1768 57.9062 56.6292 57.9062 57.5342V60H56.8076V55.2441Z" fill="#5A8DC6"/>
<defs>
<filter id="filter0_d_2515_384" x="0" y="0" width="83" height="83" filterUnits="userSpaceOnUse" color-interpolation-filters="sRGB">
<feFlood flood-opacity="0" result="BackgroundImageFix"/>
<feColorMatrix in="SourceAlpha" type="matrix" values="0 0 0 0 0 0 0 0 0 0 0 0 0 0 0 0 0 0 127 0" result="hardAlpha"/>
<feOffset dy="4"/>
<feGaussianBlur stdDeviation="2"/>
<feComposite in2="hardAlpha" operator="out"/>
<feColorMatrix type="matrix" values="0 0 0 0 0 0 0 0 0 0 0 0 0 0 0 0 0 0 0.07 0"/>
<feBlend mode="normal" in2="BackgroundImageFix" result="effect1_dropShadow_2515_384"/>
<feBlend mode="normal" in="SourceGraphic" in2="effect1_dropShadow_2515_384" result="shape"/>
</filter>
</defs>
</svg>
