<svg width="83" height="83" viewBox="0 0 83 83" fill="none" xmlns="http://www.w3.org/2000/svg">
<g filter="url(#filter0_d_2515_542)">
<rect x="4" width="75" height="75" rx="15" fill="#F2F2F2"/>
</g>
<path d="M59.3593 20.6562V29.4062C59.3593 29.8414 59.1865 30.2587 58.8788 30.5663C58.5711 30.874 58.1538 31.0469 57.7187 31.0469C57.2836 31.0469 56.8663 30.874 56.5586 30.5663C56.2509 30.2587 56.0781 29.8414 56.0781 29.4062V24.6211L45.7544 34.9461C45.602 35.099 45.4209 35.2204 45.2215 35.3032C45.0221 35.386 44.8083 35.4286 44.5923 35.4286C44.3764 35.4286 44.1626 35.386 43.9632 35.3032C43.7637 35.2204 43.5826 35.099 43.4302 34.9461L39.1249 30.6367L30.4419 39.317C30.1337 39.6252 29.7157 39.7984 29.2798 39.7984C28.8439 39.7984 28.4259 39.6252 28.1177 39.317C27.8095 39.0088 27.6364 38.5908 27.6364 38.1549C27.6364 37.719 27.8095 37.301 28.1177 36.9928L37.9615 27.149C38.1139 26.9961 38.295 26.8747 38.4944 26.7919C38.6938 26.7091 38.9076 26.6665 39.1236 26.6665C39.3395 26.6665 39.5533 26.7091 39.7527 26.7919C39.9521 26.8747 40.1333 26.9961 40.2857 27.149L44.5937 31.457L53.7538 22.2969H48.9687C48.5336 22.2969 48.1163 22.124 47.8086 21.8163C47.5009 21.5087 47.3281 21.0914 47.3281 20.6562C47.3281 20.2211 47.5009 19.8038 47.8086 19.4962C48.1163 19.1885 48.5336 19.0156 48.9687 19.0156H57.7187C58.1538 19.0156 58.5711 19.1885 58.8788 19.4962C59.1865 19.8038 59.3593 20.2211 59.3593 20.6562Z" fill="#5A8DC6"/>
<path d="M26.8164 55.5352H24.2344L23.5625 57H22.582L25.5664 50.5898L28.4453 57H27.4492L26.8164 55.5352ZM26.4453 54.6797L25.5508 52.6289L24.6133 54.6797H26.4453ZM29.9062 53.1953V55.3789C29.9062 56.0091 30.1549 56.3242 30.6523 56.3242C31.1497 56.3242 31.3984 56.0091 31.3984 55.3789V53.1953H32.2773V55.3984C32.2773 55.7031 32.2396 55.9661 32.1641 56.1875C32.0911 56.3854 31.9648 56.5638 31.7852 56.7227C31.4883 56.9805 31.1107 57.1094 30.6523 57.1094C30.1966 57.1094 29.8203 56.9805 29.5234 56.7227C29.3411 56.5638 29.2122 56.3854 29.1367 56.1875C29.0638 56.0104 29.0273 55.7474 29.0273 55.3984V53.1953H29.9062ZM37.0664 56.9102C37.0664 57.0898 37.0599 57.2474 37.0469 57.3828C37.0365 57.5208 37.0208 57.6419 37 57.7461C36.9375 58.0326 36.8151 58.2786 36.6328 58.4844C36.2891 58.8802 35.8164 59.0781 35.2148 59.0781C34.707 59.0781 34.2891 58.9414 33.9609 58.668C33.6224 58.3867 33.4271 57.9974 33.375 57.5H34.2578C34.2917 57.6875 34.3477 57.832 34.4258 57.9336C34.6081 58.1706 34.8737 58.2891 35.2227 58.2891C35.8659 58.2891 36.1875 57.8945 36.1875 57.1055V56.5742C35.8385 56.931 35.4362 57.1094 34.9805 57.1094C34.4622 57.1094 34.0378 56.9219 33.707 56.5469C33.3737 56.1667 33.207 55.6914 33.207 55.1211C33.207 54.5664 33.362 54.0951 33.6719 53.707C34.0052 53.2956 34.4453 53.0898 34.9922 53.0898C35.4714 53.0898 35.8698 53.2682 36.1875 53.625V53.1953H37.0664V56.9102ZM36.2227 55.1055C36.2227 54.7357 36.1237 54.4401 35.9258 54.2188C35.7253 53.9922 35.4688 53.8789 35.1562 53.8789C34.8229 53.8789 34.5599 54.0026 34.3672 54.25C34.1927 54.4714 34.1055 54.7578 34.1055 55.1094C34.1055 55.4557 34.1927 55.7396 34.3672 55.9609C34.5573 56.2031 34.8203 56.3242 35.1562 56.3242C35.4922 56.3242 35.7578 56.2018 35.9531 55.957C36.1328 55.7357 36.2227 55.4518 36.2227 55.1055ZM38.1758 53.1953H39.0547V53.5469C39.224 53.3698 39.3685 53.25 39.4883 53.1875C39.6159 53.1224 39.776 53.0898 39.9688 53.0898C40.3984 53.0898 40.7383 53.2773 40.9883 53.6523C41.2643 53.2773 41.638 53.0898 42.1094 53.0898C42.9661 53.0898 43.3945 53.6094 43.3945 54.6484V57H42.5117V54.8867C42.5117 54.5221 42.4674 54.2643 42.3789 54.1133C42.2878 53.9596 42.138 53.8828 41.9297 53.8828C41.6875 53.8828 41.5104 53.974 41.3984 54.1562C41.2891 54.3385 41.2344 54.6315 41.2344 55.0352V57H40.3516V54.8984C40.3516 54.2214 40.1562 53.8828 39.7656 53.8828C39.5182 53.8828 39.3372 53.9753 39.2227 54.1602C39.1107 54.3451 39.0547 54.6367 39.0547 55.0352V57H38.1758V53.1953ZM47.9688 55.3047H45.2422C45.2656 55.6172 45.3672 55.8659 45.5469 56.0508C45.7266 56.2331 45.957 56.3242 46.2383 56.3242C46.457 56.3242 46.638 56.2721 46.7812 56.168C46.9219 56.0638 47.082 55.8711 47.2617 55.5898L48.0039 56.0039C47.8893 56.1992 47.7682 56.3672 47.6406 56.5078C47.513 56.6458 47.3763 56.7604 47.2305 56.8516C47.0846 56.9401 46.9271 57.0052 46.7578 57.0469C46.5885 57.0885 46.4049 57.1094 46.207 57.1094C45.6393 57.1094 45.1836 56.9271 44.8398 56.5625C44.4961 56.1953 44.3242 55.7083 44.3242 55.1016C44.3242 54.5 44.4909 54.013 44.8242 53.6406C45.1602 53.2734 45.6055 53.0898 46.1602 53.0898C46.7201 53.0898 47.1628 53.2682 47.4883 53.625C47.8112 53.9792 47.9727 54.4701 47.9727 55.0977L47.9688 55.3047ZM47.0664 54.5859C46.944 54.1172 46.6484 53.8828 46.1797 53.8828C46.0729 53.8828 45.9727 53.8997 45.8789 53.9336C45.7852 53.9648 45.6992 54.0117 45.6211 54.0742C45.5456 54.1341 45.4805 54.207 45.4258 54.293C45.3711 54.3789 45.3294 54.4766 45.3008 54.5859H47.0664ZM48.9336 53.1953H49.8164V53.5469C50.1237 53.2422 50.4701 53.0898 50.8555 53.0898C51.2982 53.0898 51.6432 53.2292 51.8906 53.5078C52.1042 53.7448 52.2109 54.1315 52.2109 54.668V57H51.3281V54.875C51.3281 54.5 51.276 54.2409 51.1719 54.0977C51.0703 53.9518 50.8854 53.8789 50.6172 53.8789C50.3255 53.8789 50.1185 53.9753 49.9961 54.168C49.8763 54.3581 49.8164 54.6901 49.8164 55.1641V57H48.9336V53.1953ZM54.2305 54.0156V57H53.3516V54.0156H52.9766V53.1953H53.3516V51.8008H54.2305V53.1953H54.9141V54.0156H54.2305ZM59.0469 55.3047H56.3203C56.3438 55.6172 56.4453 55.8659 56.625 56.0508C56.8047 56.2331 57.0352 56.3242 57.3164 56.3242C57.5352 56.3242 57.7161 56.2721 57.8594 56.168C58 56.0638 58.1602 55.8711 58.3398 55.5898L59.082 56.0039C58.9674 56.1992 58.8464 56.3672 58.7188 56.5078C58.5911 56.6458 58.4544 56.7604 58.3086 56.8516C58.1628 56.9401 58.0052 57.0052 57.8359 57.0469C57.6667 57.0885 57.4831 57.1094 57.2852 57.1094C56.7174 57.1094 56.2617 56.9271 55.918 56.5625C55.5742 56.1953 55.4023 55.7083 55.4023 55.1016C55.4023 54.5 55.569 54.013 55.9023 53.6406C56.2383 53.2734 56.6836 53.0898 57.2383 53.0898C57.7982 53.0898 58.2409 53.2682 58.5664 53.625C58.8893 53.9792 59.0508 54.4701 59.0508 55.0977L59.0469 55.3047ZM58.1445 54.5859C58.0221 54.1172 57.7266 53.8828 57.2578 53.8828C57.151 53.8828 57.0508 53.8997 56.957 53.9336C56.8633 53.9648 56.7773 54.0117 56.6992 54.0742C56.6237 54.1341 56.5586 54.207 56.5039 54.293C56.4492 54.3789 56.4076 54.4766 56.3789 54.5859H58.1445ZM60.0117 53.1953H60.8906V53.5352C61.0521 53.3659 61.1953 53.25 61.3203 53.1875C61.4479 53.1224 61.599 53.0898 61.7734 53.0898C62.0052 53.0898 62.2474 53.1654 62.5 53.3164L62.0977 54.1211C61.931 54.0013 61.7682 53.9414 61.6094 53.9414C61.1302 53.9414 60.8906 54.3034 60.8906 55.0273V57H60.0117V53.1953ZM17.8281 64.8438L17.1016 65.2305C16.987 64.9961 16.8451 64.8789 16.6758 64.8789C16.5951 64.8789 16.526 64.9062 16.4688 64.9609C16.4115 65.013 16.3828 65.0807 16.3828 65.1641C16.3828 65.3099 16.5521 65.4544 16.8906 65.5977C17.3568 65.7982 17.6706 65.9831 17.832 66.1523C17.9935 66.3216 18.0742 66.5495 18.0742 66.8359C18.0742 67.2031 17.9388 67.5104 17.668 67.7578C17.4049 67.9922 17.0872 68.1094 16.7148 68.1094C16.0768 68.1094 15.625 67.7982 15.3594 67.1758L16.1094 66.8281C16.2135 67.0104 16.293 67.1263 16.3477 67.1758C16.4544 67.2747 16.582 67.3242 16.7305 67.3242C17.0273 67.3242 17.1758 67.1888 17.1758 66.918C17.1758 66.7617 17.0612 66.6159 16.832 66.4805C16.7435 66.4362 16.6549 66.3932 16.5664 66.3516C16.4779 66.3099 16.388 66.2669 16.2969 66.2227C16.0417 66.0977 15.862 65.9727 15.7578 65.8477C15.625 65.6888 15.5586 65.4844 15.5586 65.2344C15.5586 64.9036 15.6719 64.6302 15.8984 64.4141C16.1302 64.1979 16.4115 64.0898 16.7422 64.0898C17.2292 64.0898 17.5911 64.3411 17.8281 64.8438ZM22.332 66.3047H19.6055C19.6289 66.6172 19.7305 66.8659 19.9102 67.0508C20.0898 67.2331 20.3203 67.3242 20.6016 67.3242C20.8203 67.3242 21.0013 67.2721 21.1445 67.168C21.2852 67.0638 21.4453 66.8711 21.625 66.5898L22.3672 67.0039C22.2526 67.1992 22.1315 67.3672 22.0039 67.5078C21.8763 67.6458 21.7396 67.7604 21.5938 67.8516C21.4479 67.9401 21.2904 68.0052 21.1211 68.0469C20.9518 68.0885 20.7682 68.1094 20.5703 68.1094C20.0026 68.1094 19.5469 67.9271 19.2031 67.5625C18.8594 67.1953 18.6875 66.7083 18.6875 66.1016C18.6875 65.5 18.8542 65.013 19.1875 64.6406C19.5234 64.2734 19.9688 64.0898 20.5234 64.0898C21.0833 64.0898 21.526 64.2682 21.8516 64.625C22.1745 64.9792 22.3359 65.4701 22.3359 66.0977L22.332 66.3047ZM21.4297 65.5859C21.3073 65.1172 21.0117 64.8828 20.543 64.8828C20.4362 64.8828 20.3359 64.8997 20.2422 64.9336C20.1484 64.9648 20.0625 65.0117 19.9844 65.0742C19.9089 65.1341 19.8438 65.207 19.7891 65.293C19.7344 65.3789 19.6927 65.4766 19.6641 65.5859H21.4297ZM25.5078 64.8438L24.7812 65.2305C24.6667 64.9961 24.5247 64.8789 24.3555 64.8789C24.2747 64.8789 24.2057 64.9062 24.1484 64.9609C24.0911 65.013 24.0625 65.0807 24.0625 65.1641C24.0625 65.3099 24.2318 65.4544 24.5703 65.5977C25.0365 65.7982 25.3503 65.9831 25.5117 66.1523C25.6732 66.3216 25.7539 66.5495 25.7539 66.8359C25.7539 67.2031 25.6185 67.5104 25.3477 67.7578C25.0846 67.9922 24.7669 68.1094 24.3945 68.1094C23.7565 68.1094 23.3047 67.7982 23.0391 67.1758L23.7891 66.8281C23.8932 67.0104 23.9727 67.1263 24.0273 67.1758C24.1341 67.2747 24.2617 67.3242 24.4102 67.3242C24.707 67.3242 24.8555 67.1888 24.8555 66.918C24.8555 66.7617 24.7409 66.6159 24.5117 66.4805C24.4232 66.4362 24.3346 66.3932 24.2461 66.3516C24.1576 66.3099 24.0677 66.2669 23.9766 66.2227C23.7214 66.0977 23.5417 65.9727 23.4375 65.8477C23.3047 65.6888 23.2383 65.4844 23.2383 65.2344C23.2383 64.9036 23.3516 64.6302 23.5781 64.4141C23.8099 64.1979 24.0911 64.0898 24.4219 64.0898C24.9089 64.0898 25.2708 64.3411 25.5078 64.8438ZM29.0156 64.1953H29.8945V64.5469C30.0638 64.3698 30.2083 64.25 30.3281 64.1875C30.4557 64.1224 30.6159 64.0898 30.8086 64.0898C31.2383 64.0898 31.5781 64.2773 31.8281 64.6523C32.1042 64.2773 32.4779 64.0898 32.9492 64.0898C33.806 64.0898 34.2344 64.6094 34.2344 65.6484V68H33.3516V65.8867C33.3516 65.5221 33.3073 65.2643 33.2188 65.1133C33.1276 64.9596 32.9779 64.8828 32.7695 64.8828C32.5273 64.8828 32.3503 64.974 32.2383 65.1562C32.1289 65.3385 32.0742 65.6315 32.0742 66.0352V68H31.1914V65.8984C31.1914 65.2214 30.9961 64.8828 30.6055 64.8828C30.3581 64.8828 30.1771 64.9753 30.0625 65.1602C29.9505 65.3451 29.8945 65.6367 29.8945 66.0352V68H29.0156V64.1953ZM38.8086 66.3047H36.082C36.1055 66.6172 36.207 66.8659 36.3867 67.0508C36.5664 67.2331 36.7969 67.3242 37.0781 67.3242C37.2969 67.3242 37.4779 67.2721 37.6211 67.168C37.7617 67.0638 37.9219 66.8711 38.1016 66.5898L38.8438 67.0039C38.7292 67.1992 38.6081 67.3672 38.4805 67.5078C38.3529 67.6458 38.2161 67.7604 38.0703 67.8516C37.9245 67.9401 37.7669 68.0052 37.5977 68.0469C37.4284 68.0885 37.2448 68.1094 37.0469 68.1094C36.4792 68.1094 36.0234 67.9271 35.6797 67.5625C35.3359 67.1953 35.1641 66.7083 35.1641 66.1016C35.1641 65.5 35.3307 65.013 35.6641 64.6406C36 64.2734 36.4453 64.0898 37 64.0898C37.5599 64.0898 38.0026 64.2682 38.3281 64.625C38.651 64.9792 38.8125 65.4701 38.8125 66.0977L38.8086 66.3047ZM37.9062 65.5859C37.7839 65.1172 37.4883 64.8828 37.0195 64.8828C36.9128 64.8828 36.8125 64.8997 36.7188 64.9336C36.625 64.9648 36.5391 65.0117 36.4609 65.0742C36.3854 65.1341 36.3203 65.207 36.2656 65.293C36.2109 65.3789 36.1693 65.4766 36.1406 65.5859H37.9062ZM39.7734 64.1953H40.6562V64.5469C40.9635 64.2422 41.3099 64.0898 41.6953 64.0898C42.138 64.0898 42.4831 64.2292 42.7305 64.5078C42.944 64.7448 43.0508 65.1315 43.0508 65.668V68H42.168V65.875C42.168 65.5 42.1159 65.2409 42.0117 65.0977C41.9102 64.9518 41.7253 64.8789 41.457 64.8789C41.1654 64.8789 40.9583 64.9753 40.8359 65.168C40.7161 65.3581 40.6562 65.6901 40.6562 66.1641V68H39.7734V64.1953ZM46.375 64.8438L45.6484 65.2305C45.5339 64.9961 45.3919 64.8789 45.2227 64.8789C45.1419 64.8789 45.0729 64.9062 45.0156 64.9609C44.9583 65.013 44.9297 65.0807 44.9297 65.1641C44.9297 65.3099 45.099 65.4544 45.4375 65.5977C45.9036 65.7982 46.2174 65.9831 46.3789 66.1523C46.5404 66.3216 46.6211 66.5495 46.6211 66.8359C46.6211 67.2031 46.4857 67.5104 46.2148 67.7578C45.9518 67.9922 45.6341 68.1094 45.2617 68.1094C44.6237 68.1094 44.1719 67.7982 43.9062 67.1758L44.6562 66.8281C44.7604 67.0104 44.8398 67.1263 44.8945 67.1758C45.0013 67.2747 45.1289 67.3242 45.2773 67.3242C45.5742 67.3242 45.7227 67.1888 45.7227 66.918C45.7227 66.7617 45.6081 66.6159 45.3789 66.4805C45.2904 66.4362 45.2018 66.3932 45.1133 66.3516C45.0247 66.3099 44.9349 66.2669 44.8438 66.2227C44.5885 66.0977 44.4089 65.9727 44.3047 65.8477C44.1719 65.6888 44.1055 65.4844 44.1055 65.2344C44.1055 64.9036 44.2188 64.6302 44.4453 64.4141C44.6771 64.1979 44.9583 64.0898 45.2891 64.0898C45.776 64.0898 46.138 64.3411 46.375 64.8438ZM48.293 64.1953V66.3789C48.293 67.0091 48.5417 67.3242 49.0391 67.3242C49.5365 67.3242 49.7852 67.0091 49.7852 66.3789V64.1953H50.6641V66.3984C50.6641 66.7031 50.6263 66.9661 50.5508 67.1875C50.4779 67.3854 50.3516 67.5638 50.1719 67.7227C49.875 67.9805 49.4974 68.1094 49.0391 68.1094C48.5833 68.1094 48.207 67.9805 47.9102 67.7227C47.7279 67.5638 47.599 67.3854 47.5234 67.1875C47.4505 67.0104 47.4141 66.7474 47.4141 66.3984V64.1953H48.293ZM54.5781 64.1953H55.4609V68H54.5781V67.6016C54.2161 67.9401 53.8268 68.1094 53.4102 68.1094C52.8841 68.1094 52.4492 67.9193 52.1055 67.5391C51.7643 67.151 51.5938 66.6667 51.5938 66.0859C51.5938 65.5156 51.7643 65.0404 52.1055 64.6602C52.4466 64.2799 52.8737 64.0898 53.3867 64.0898C53.8294 64.0898 54.2266 64.2721 54.5781 64.6367V64.1953ZM52.4922 66.0859C52.4922 66.4505 52.5898 66.7474 52.7852 66.9766C52.9857 67.2083 53.2383 67.3242 53.543 67.3242C53.8685 67.3242 54.1315 67.2122 54.332 66.9883C54.5326 66.7565 54.6328 66.4622 54.6328 66.1055C54.6328 65.7487 54.5326 65.4544 54.332 65.2227C54.1315 64.9961 53.8711 64.8828 53.5508 64.8828C53.2487 64.8828 52.9961 64.9974 52.793 65.2266C52.5924 65.4583 52.4922 65.7448 52.4922 66.0859ZM57.4492 61.4023V68H56.5703V61.4023H57.4492ZM59.4414 64.1953V68H58.5625V64.1953H59.4414ZM58.4297 62.6133C58.4297 62.4596 58.4857 62.3268 58.5977 62.2148C58.7096 62.1029 58.8438 62.0469 59 62.0469C59.1589 62.0469 59.2943 62.1029 59.4062 62.2148C59.5182 62.3242 59.5742 62.4583 59.5742 62.6172C59.5742 62.776 59.5182 62.9115 59.4062 63.0234C59.2969 63.1354 59.1628 63.1914 59.0039 63.1914C58.8451 63.1914 58.7096 63.1354 58.5977 63.0234C58.4857 62.9115 58.4297 62.7747 58.4297 62.6133ZM61.4609 65.0156V68H60.582V65.0156H60.207V64.1953H60.582V62.8008H61.4609V64.1953H62.1445V65.0156H61.4609ZM66.2773 66.3047H63.5508C63.5742 66.6172 63.6758 66.8659 63.8555 67.0508C64.0352 67.2331 64.2656 67.3242 64.5469 67.3242C64.7656 67.3242 64.9466 67.2721 65.0898 67.168C65.2305 67.0638 65.3906 66.8711 65.5703 66.5898L66.3125 67.0039C66.1979 67.1992 66.0768 67.3672 65.9492 67.5078C65.8216 67.6458 65.6849 67.7604 65.5391 67.8516C65.3932 67.9401 65.2357 68.0052 65.0664 68.0469C64.8971 68.0885 64.7135 68.1094 64.5156 68.1094C63.9479 68.1094 63.4922 67.9271 63.1484 67.5625C62.8047 67.1953 62.6328 66.7083 62.6328 66.1016C62.6328 65.5 62.7995 65.013 63.1328 64.6406C63.4688 64.2734 63.9141 64.0898 64.4688 64.0898C65.0286 64.0898 65.4714 64.2682 65.7969 64.625C66.1198 64.9792 66.2812 65.4701 66.2812 66.0977L66.2773 66.3047ZM65.375 65.5859C65.2526 65.1172 64.957 64.8828 64.4883 64.8828C64.3815 64.8828 64.2812 64.8997 64.1875 64.9336C64.0938 64.9648 64.0078 65.0117 63.9297 65.0742C63.8542 65.1341 63.7891 65.207 63.7344 65.293C63.6797 65.3789 63.638 65.4766 63.6094 65.5859H65.375ZM65.7891 62.3203L64.3672 63.6094L63.8867 63.3125L64.9609 61.8906L65.7891 62.3203ZM69.4531 64.8438L68.7266 65.2305C68.612 64.9961 68.4701 64.8789 68.3008 64.8789C68.2201 64.8789 68.151 64.9062 68.0938 64.9609C68.0365 65.013 68.0078 65.0807 68.0078 65.1641C68.0078 65.3099 68.1771 65.4544 68.5156 65.5977C68.9818 65.7982 69.2956 65.9831 69.457 66.1523C69.6185 66.3216 69.6992 66.5495 69.6992 66.8359C69.6992 67.2031 69.5638 67.5104 69.293 67.7578C69.0299 67.9922 68.7122 68.1094 68.3398 68.1094C67.7018 68.1094 67.25 67.7982 66.9844 67.1758L67.7344 66.8281C67.8385 67.0104 67.918 67.1263 67.9727 67.1758C68.0794 67.2747 68.207 67.3242 68.3555 67.3242C68.6523 67.3242 68.8008 67.1888 68.8008 66.918C68.8008 66.7617 68.6862 66.6159 68.457 66.4805C68.3685 66.4362 68.2799 66.3932 68.1914 66.3516C68.1029 66.3099 68.013 66.2669 67.9219 66.2227C67.6667 66.0977 67.487 65.9727 67.3828 65.8477C67.25 65.6888 67.1836 65.4844 67.1836 65.2344C67.1836 64.9036 67.2969 64.6302 67.5234 64.4141C67.7552 64.1979 68.0365 64.0898 68.3672 64.0898C68.8542 64.0898 69.2161 64.3411 69.4531 64.8438Z" fill="#5A8DC6"/>
<defs>
<filter id="filter0_d_2515_542" x="0" y="0" width="83" height="83" filterUnits="userSpaceOnUse" color-interpolation-filters="sRGB">
<feFlood flood-opacity="0" result="BackgroundImageFix"/>
<feColorMatrix in="SourceAlpha" type="matrix" values="0 0 0 0 0 0 0 0 0 0 0 0 0 0 0 0 0 0 127 0" result="hardAlpha"/>
<feOffset dy="4"/>
<feGaussianBlur stdDeviation="2"/>
<feComposite in2="hardAlpha" operator="out"/>
<feColorMatrix type="matrix" values="0 0 0 0 0 0 0 0 0 0 0 0 0 0 0 0 0 0 0.07 0"/>
<feBlend mode="normal" in2="BackgroundImageFix" result="effect1_dropShadow_2515_542"/>
<feBlend mode="normal" in="SourceGraphic" in2="effect1_dropShadow_2515_542" result="shape"/>
</filter>
</defs>
</svg>
