<svg width="83" height="83" viewBox="0 0 83 83" fill="none" xmlns="http://www.w3.org/2000/svg">
<g filter="url(#filter0_d_2515_497)">
<rect x="4" width="75" height="75" rx="15" fill="#F2F2F2"/>
</g>
<path d="M24.3721 58.1689H21.1445L20.3047 60H19.0791L22.8096 51.9873L26.4082 60H25.1631L24.3721 58.1689ZM23.9082 57.0996L22.79 54.5361L21.6182 57.0996H23.9082ZM27.502 55.2441L28.7324 57.915L29.958 55.2441H31.1934L28.7227 60.3271L26.2715 55.2441H27.502ZM35.2705 55.2441H36.374V60H35.2705V59.502C34.818 59.9251 34.3314 60.1367 33.8105 60.1367C33.153 60.1367 32.6094 59.8991 32.1797 59.4238C31.7533 58.9388 31.54 58.3333 31.54 57.6074C31.54 56.8945 31.7533 56.3005 32.1797 55.8252C32.6061 55.3499 33.14 55.1123 33.7812 55.1123C34.3346 55.1123 34.8311 55.3402 35.2705 55.7959V55.2441ZM32.6631 57.6074C32.6631 58.0632 32.7852 58.4342 33.0293 58.7207C33.2799 59.0104 33.5957 59.1553 33.9766 59.1553C34.3835 59.1553 34.7122 59.0153 34.9629 58.7354C35.2135 58.4456 35.3389 58.0778 35.3389 57.6318C35.3389 57.1859 35.2135 56.818 34.9629 56.5283C34.7122 56.2451 34.3867 56.1035 33.9863 56.1035C33.6087 56.1035 33.293 56.2467 33.0391 56.5332C32.7884 56.8229 32.6631 57.181 32.6631 57.6074ZM37.7607 55.2441H38.8643V55.6836C39.2484 55.3027 39.6813 55.1123 40.1631 55.1123C40.7165 55.1123 41.1478 55.2865 41.457 55.6348C41.724 55.931 41.8574 56.4144 41.8574 57.085V60H40.7539V57.3438C40.7539 56.875 40.6888 56.5511 40.5586 56.3721C40.4316 56.1898 40.2005 56.0986 39.8652 56.0986C39.5007 56.0986 39.2419 56.2191 39.0889 56.46C38.9391 56.6976 38.8643 57.1126 38.8643 57.7051V60H37.7607V55.2441ZM44.3818 56.2695V60H43.2832V56.2695H42.8145V55.2441H43.2832V53.501H44.3818V55.2441H45.2363V56.2695H44.3818ZM49.5771 55.2441H50.6807V60H49.5771V59.502C49.1247 59.9251 48.638 60.1367 48.1172 60.1367C47.4596 60.1367 46.916 59.8991 46.4863 59.4238C46.0599 58.9388 45.8467 58.3333 45.8467 57.6074C45.8467 56.8945 46.0599 56.3005 46.4863 55.8252C46.9128 55.3499 47.4466 55.1123 48.0879 55.1123C48.6413 55.1123 49.1377 55.3402 49.5771 55.7959V55.2441ZM46.9697 57.6074C46.9697 58.0632 47.0918 58.4342 47.3359 58.7207C47.5866 59.0104 47.9023 59.1553 48.2832 59.1553C48.6901 59.1553 49.0189 59.0153 49.2695 58.7354C49.5202 58.4456 49.6455 58.0778 49.6455 57.6318C49.6455 57.1859 49.5202 56.818 49.2695 56.5283C49.0189 56.2451 48.6934 56.1035 48.293 56.1035C47.9154 56.1035 47.5996 56.2467 47.3457 56.5332C47.0951 56.8229 46.9697 57.181 46.9697 57.6074ZM56.667 59.8877C56.667 60.1123 56.6589 60.3092 56.6426 60.4785C56.6296 60.651 56.61 60.8024 56.584 60.9326C56.5059 61.2907 56.3529 61.5983 56.125 61.8555C55.6953 62.3503 55.1045 62.5977 54.3525 62.5977C53.7178 62.5977 53.1953 62.4268 52.7852 62.085C52.362 61.7334 52.1178 61.2467 52.0527 60.625H53.1562C53.1986 60.8594 53.2686 61.04 53.3662 61.167C53.5941 61.4632 53.9261 61.6113 54.3623 61.6113C55.1663 61.6113 55.5684 61.1182 55.5684 60.1318V59.4678C55.1322 59.9137 54.6292 60.1367 54.0596 60.1367C53.4118 60.1367 52.8812 59.9023 52.4678 59.4336C52.0511 58.9583 51.8428 58.3643 51.8428 57.6514C51.8428 56.958 52.0365 56.3688 52.4238 55.8838C52.8405 55.3695 53.3906 55.1123 54.0742 55.1123C54.6732 55.1123 55.1712 55.3353 55.5684 55.7812V55.2441H56.667V59.8877ZM55.6123 57.6318C55.6123 57.1696 55.4886 56.8001 55.2412 56.5234C54.9906 56.2402 54.6699 56.0986 54.2793 56.0986C53.8626 56.0986 53.5339 56.2533 53.293 56.5625C53.0749 56.8392 52.9658 57.1973 52.9658 57.6367C52.9658 58.0697 53.0749 58.4245 53.293 58.7012C53.5306 59.0039 53.8594 59.1553 54.2793 59.1553C54.6992 59.1553 55.0312 59.0023 55.2754 58.6963C55.5 58.4196 55.6123 58.0648 55.6123 57.6318ZM62.3848 57.8809H58.9766C59.0059 58.2715 59.1328 58.5824 59.3574 58.8135C59.582 59.0413 59.8701 59.1553 60.2217 59.1553C60.4951 59.1553 60.7214 59.0902 60.9004 58.96C61.0762 58.8298 61.2764 58.5889 61.501 58.2373L62.4287 58.7549C62.2855 58.999 62.1341 59.209 61.9746 59.3848C61.8151 59.5573 61.6442 59.7005 61.4619 59.8145C61.2796 59.9251 61.0827 60.0065 60.8711 60.0586C60.6595 60.1107 60.43 60.1367 60.1826 60.1367C59.473 60.1367 58.9033 59.9089 58.4736 59.4531C58.0439 58.9941 57.8291 58.3854 57.8291 57.627C57.8291 56.875 58.0374 56.2663 58.4541 55.8008C58.874 55.3418 59.4307 55.1123 60.124 55.1123C60.8239 55.1123 61.3773 55.3353 61.7842 55.7812C62.1878 56.224 62.3896 56.8376 62.3896 57.6221L62.3848 57.8809ZM61.2568 56.9824C61.1038 56.3965 60.7344 56.1035 60.1484 56.1035C60.015 56.1035 59.8896 56.1247 59.7725 56.167C59.6553 56.2061 59.5479 56.2646 59.4502 56.3428C59.3558 56.4176 59.2744 56.5088 59.2061 56.6162C59.1377 56.7236 59.0856 56.8457 59.0498 56.9824H61.2568ZM66.3545 56.0547L65.4463 56.5381C65.3031 56.2451 65.1257 56.0986 64.9141 56.0986C64.8132 56.0986 64.7269 56.1328 64.6553 56.2012C64.5837 56.2663 64.5479 56.3509 64.5479 56.4551C64.5479 56.6374 64.7594 56.818 65.1826 56.9971C65.7653 57.2477 66.1576 57.4788 66.3594 57.6904C66.5612 57.902 66.6621 58.1868 66.6621 58.5449C66.6621 59.0039 66.4928 59.388 66.1543 59.6973C65.8255 59.9902 65.4284 60.1367 64.9629 60.1367C64.1654 60.1367 63.6006 59.7477 63.2686 58.9697L64.2061 58.5352C64.3363 58.763 64.4355 58.9079 64.5039 58.9697C64.6374 59.0934 64.7969 59.1553 64.9824 59.1553C65.3535 59.1553 65.5391 58.986 65.5391 58.6475C65.5391 58.4521 65.3958 58.2699 65.1094 58.1006C64.9987 58.0452 64.888 57.9915 64.7773 57.9395C64.6667 57.8874 64.5544 57.8337 64.4404 57.7783C64.1214 57.6221 63.8968 57.4658 63.7666 57.3096C63.6006 57.111 63.5176 56.8555 63.5176 56.543C63.5176 56.1296 63.6592 55.7878 63.9424 55.5176C64.2321 55.2474 64.5837 55.1123 64.9971 55.1123C65.6058 55.1123 66.0583 55.4264 66.3545 56.0547Z" fill="#5A8DC6"/>
<path d="M29.9063 24.6562H55.0938M29.1446 25.3955L41.7232 41.7105C41.8146 41.8297 41.9322 41.9262 42.0669 41.9926C42.2017 42.0591 42.3498 42.0936 42.5 42.0936C42.6502 42.0936 42.7984 42.0591 42.9331 41.9926C43.0678 41.9262 43.1854 41.8297 43.2768 41.7105L55.8555 25.3955C55.9791 25.2345 56.0509 25.0396 56.0612 24.8369C56.0714 24.6341 56.0198 24.433 55.913 24.2603L51.6462 17.3731C51.5584 17.2305 51.4356 17.1128 51.2895 17.0311C51.1433 16.9494 50.9787 16.9064 50.8113 16.9062H34.1888C34.0213 16.9064 33.8567 16.9494 33.7106 17.0311C33.5645 17.1128 33.4417 17.2305 33.3538 17.3731L29.0871 24.2603C28.9803 24.433 28.9286 24.6341 28.9389 24.8369C28.9492 25.0396 29.0209 25.2345 29.1446 25.3955Z" stroke="#5A8DC6" stroke-width="1.3" stroke-linecap="round" stroke-linejoin="round"/>
<path d="M51.2188 17.875L48.3125 24.6562M48.3125 24.6562L42.5 16.9062L36.6875 24.6562M48.3125 24.6562L42.5 41.125L36.6875 24.6562M33.7812 17.875L36.6875 24.6562" stroke="#5A8DC6" stroke-width="1.3" stroke-linecap="round" stroke-linejoin="round"/>
<defs>
<filter id="filter0_d_2515_497" x="0" y="0" width="83" height="83" filterUnits="userSpaceOnUse" color-interpolation-filters="sRGB">
<feFlood flood-opacity="0" result="BackgroundImageFix"/>
<feColorMatrix in="SourceAlpha" type="matrix" values="0 0 0 0 0 0 0 0 0 0 0 0 0 0 0 0 0 0 127 0" result="hardAlpha"/>
<feOffset dy="4"/>
<feGaussianBlur stdDeviation="2"/>
<feComposite in2="hardAlpha" operator="out"/>
<feColorMatrix type="matrix" values="0 0 0 0 0 0 0 0 0 0 0 0 0 0 0 0 0 0 0.07 0"/>
<feBlend mode="normal" in2="BackgroundImageFix" result="effect1_dropShadow_2515_497"/>
<feBlend mode="normal" in="SourceGraphic" in2="effect1_dropShadow_2515_497" result="shape"/>
</filter>
</defs>
</svg>
