<svg width="83" height="83" viewBox="0 0 83 83" fill="none" xmlns="http://www.w3.org/2000/svg">
<g filter="url(#filter0_d_2549_548)">
<rect x="4" width="75" height="75" rx="15" fill="#F2F2F2"/>
</g>
<path d="M29.6865 60.1367H28.2559L27.665 59.5312C27.0368 59.9349 26.3369 60.1367 25.5654 60.1367C24.5661 60.1367 23.679 59.7982 22.9043 59.1211C22.0612 58.3757 21.6396 57.4235 21.6396 56.2646C21.6396 55.1286 22.0384 54.1813 22.8359 53.4229C23.6107 52.6872 24.5254 52.3193 25.5801 52.3193C26.5371 52.3193 27.3949 52.6416 28.1533 53.2861C29.0648 54.0609 29.5205 55.0716 29.5205 56.3184C29.5205 57.2949 29.1608 58.1624 28.4414 58.9209L29.6865 60.1367ZM26.5566 57.0166L27.6504 58.1055C28.1322 57.6042 28.373 56.984 28.373 56.2451C28.373 55.4346 28.1045 54.7559 27.5674 54.209C27.0303 53.6621 26.363 53.3887 25.5654 53.3887C24.7581 53.3887 24.0941 53.6621 23.5732 54.209C23.0492 54.7526 22.7871 55.4411 22.7871 56.2744C22.7871 57.0882 23.0573 57.7539 23.5977 58.2715C24.1608 58.8053 24.8037 59.0723 25.5264 59.0723C26.0179 59.0723 26.4622 58.96 26.8594 58.7354L25.0869 57.0166H26.5566ZM31.8398 55.2441V57.9736C31.8398 58.7614 32.1507 59.1553 32.7725 59.1553C33.3942 59.1553 33.7051 58.7614 33.7051 57.9736V55.2441H34.8037V57.998C34.8037 58.3789 34.7565 58.7077 34.6621 58.9844C34.571 59.2318 34.4131 59.4548 34.1885 59.6533C33.8174 59.9756 33.3454 60.1367 32.7725 60.1367C32.2028 60.1367 31.7324 59.9756 31.3613 59.6533C31.1335 59.4548 30.9723 59.2318 30.8779 58.9844C30.7868 58.763 30.7412 58.4342 30.7412 57.998V55.2441H31.8398ZM40.5215 57.8809H37.1133C37.1426 58.2715 37.2695 58.5824 37.4941 58.8135C37.7188 59.0413 38.0068 59.1553 38.3584 59.1553C38.6318 59.1553 38.8581 59.0902 39.0371 58.96C39.2129 58.8298 39.4131 58.5889 39.6377 58.2373L40.5654 58.7549C40.4222 58.999 40.2708 59.209 40.1113 59.3848C39.9518 59.5573 39.7809 59.7005 39.5986 59.8145C39.4163 59.9251 39.2194 60.0065 39.0078 60.0586C38.7962 60.1107 38.5667 60.1367 38.3193 60.1367C37.6097 60.1367 37.04 59.9089 36.6104 59.4531C36.1807 58.9941 35.9658 58.3854 35.9658 57.627C35.9658 56.875 36.1742 56.2663 36.5908 55.8008C37.0107 55.3418 37.5674 55.1123 38.2607 55.1123C38.9606 55.1123 39.514 55.3353 39.9209 55.7812C40.3245 56.224 40.5264 56.8376 40.5264 57.6221L40.5215 57.8809ZM39.3936 56.9824C39.2406 56.3965 38.8711 56.1035 38.2852 56.1035C38.1517 56.1035 38.0264 56.1247 37.9092 56.167C37.792 56.2061 37.6846 56.2646 37.5869 56.3428C37.4925 56.4176 37.4111 56.5088 37.3428 56.6162C37.2744 56.7236 37.2223 56.8457 37.1865 56.9824H39.3936ZM44.4912 56.0547L43.583 56.5381C43.4398 56.2451 43.2624 56.0986 43.0508 56.0986C42.9499 56.0986 42.8636 56.1328 42.792 56.2012C42.7204 56.2663 42.6846 56.3509 42.6846 56.4551C42.6846 56.6374 42.8962 56.818 43.3193 56.9971C43.902 57.2477 44.2943 57.4788 44.4961 57.6904C44.6979 57.902 44.7988 58.1868 44.7988 58.5449C44.7988 59.0039 44.6296 59.388 44.291 59.6973C43.9622 59.9902 43.5651 60.1367 43.0996 60.1367C42.3021 60.1367 41.7373 59.7477 41.4053 58.9697L42.3428 58.5352C42.473 58.763 42.5723 58.9079 42.6406 58.9697C42.7741 59.0934 42.9336 59.1553 43.1191 59.1553C43.4902 59.1553 43.6758 58.986 43.6758 58.6475C43.6758 58.4521 43.5326 58.2699 43.2461 58.1006C43.1354 58.0452 43.0247 57.9915 42.9141 57.9395C42.8034 57.8874 42.6911 57.8337 42.5771 57.7783C42.2581 57.6221 42.0335 57.4658 41.9033 57.3096C41.7373 57.111 41.6543 56.8555 41.6543 56.543C41.6543 56.1296 41.7959 55.7878 42.0791 55.5176C42.3688 55.2474 42.7204 55.1123 43.1338 55.1123C43.7425 55.1123 44.195 55.4264 44.4912 56.0547ZM46.9229 56.2695V60H45.8242V56.2695H45.3555V55.2441H45.8242V53.501H46.9229V55.2441H47.7773V56.2695H46.9229ZM49.623 55.2441V60H48.5244V55.2441H49.623ZM48.3584 53.2666C48.3584 53.0745 48.4284 52.9085 48.5684 52.7686C48.7083 52.6286 48.876 52.5586 49.0713 52.5586C49.2699 52.5586 49.4391 52.6286 49.5791 52.7686C49.7191 52.9053 49.7891 53.0729 49.7891 53.2715C49.7891 53.4701 49.7191 53.6393 49.5791 53.7793C49.4424 53.9193 49.2747 53.9893 49.0762 53.9893C48.8776 53.9893 48.7083 53.9193 48.5684 53.7793C48.4284 53.6393 48.3584 53.4684 48.3584 53.2666ZM50.79 57.5879C50.79 56.901 51.0358 56.3167 51.5273 55.835C52.0189 55.3532 52.6178 55.1123 53.3242 55.1123C54.0339 55.1123 54.6361 55.3548 55.1309 55.8398C55.6191 56.3249 55.8633 56.9206 55.8633 57.627C55.8633 58.3398 55.6175 58.9372 55.126 59.4189C54.6312 59.8975 54.0241 60.1367 53.3047 60.1367C52.5918 60.1367 51.9945 59.8926 51.5127 59.4043C51.0309 58.9225 50.79 58.3171 50.79 57.5879ZM51.9131 57.6074C51.9131 58.0827 52.04 58.4587 52.2939 58.7354C52.5544 59.0153 52.8978 59.1553 53.3242 59.1553C53.7539 59.1553 54.0973 59.0169 54.3545 58.7402C54.6117 58.4635 54.7402 58.0941 54.7402 57.6318C54.7402 57.1696 54.6117 56.8001 54.3545 56.5234C54.0941 56.2435 53.7507 56.1035 53.3242 56.1035C52.9043 56.1035 52.5641 56.2435 52.3037 56.5234C52.0433 56.8034 51.9131 57.1647 51.9131 57.6074ZM57.0303 55.2441H58.1338V55.6836C58.5179 55.3027 58.9508 55.1123 59.4326 55.1123C59.986 55.1123 60.4173 55.2865 60.7266 55.6348C60.9935 55.931 61.127 56.4144 61.127 57.085V60H60.0234V57.3438C60.0234 56.875 59.9583 56.5511 59.8281 56.3721C59.7012 56.1898 59.4701 56.0986 59.1348 56.0986C58.7702 56.0986 58.5114 56.2191 58.3584 56.46C58.2087 56.6976 58.1338 57.1126 58.1338 57.7051V60H57.0303V55.2441ZM65.2822 56.0547L64.374 56.5381C64.2308 56.2451 64.0534 56.0986 63.8418 56.0986C63.7409 56.0986 63.6546 56.1328 63.583 56.2012C63.5114 56.2663 63.4756 56.3509 63.4756 56.4551C63.4756 56.6374 63.6872 56.818 64.1104 56.9971C64.693 57.2477 65.0853 57.4788 65.2871 57.6904C65.4889 57.902 65.5898 58.1868 65.5898 58.5449C65.5898 59.0039 65.4206 59.388 65.082 59.6973C64.7533 59.9902 64.3561 60.1367 63.8906 60.1367C63.0931 60.1367 62.5283 59.7477 62.1963 58.9697L63.1338 58.5352C63.264 58.763 63.3633 58.9079 63.4316 58.9697C63.5651 59.0934 63.7246 59.1553 63.9102 59.1553C64.2812 59.1553 64.4668 58.986 64.4668 58.6475C64.4668 58.4521 64.3236 58.2699 64.0371 58.1006C63.9264 58.0452 63.8158 57.9915 63.7051 57.9395C63.5944 57.8874 63.4821 57.8337 63.3682 57.7783C63.0492 57.6221 62.8245 57.4658 62.6943 57.3096C62.5283 57.111 62.4453 56.8555 62.4453 56.543C62.4453 56.1296 62.5869 55.7878 62.8701 55.5176C63.1598 55.2474 63.5114 55.1123 63.9248 55.1123C64.5335 55.1123 64.986 55.4264 65.2822 56.0547Z" fill="#5A8DC6"/>
<path d="M41.501 24.6154C40.3717 24.6154 39.4551 25.5918 39.4551 26.7949V26.9814C39.4551 27.3283 39.3258 27.6609 39.0955 27.9061C38.8653 28.1514 38.5531 28.2891 38.2275 28.2891C37.902 28.2891 37.5897 28.1514 37.3595 27.9061C37.1293 27.6609 37 27.3283 37 26.9814V26.7949C37 25.5232 37.4742 24.3036 38.3183 23.4044C39.1624 22.5052 40.3073 22 41.501 22H41.6909C42.5714 22.0004 43.4306 22.2881 44.1531 22.8242C44.8756 23.3604 45.4267 24.1194 45.7322 24.9991C46.0377 25.8788 46.083 26.8371 45.862 27.7451C45.6411 28.6531 45.1644 29.4672 44.4962 30.0781L43.2359 31.2288C43.0778 31.375 42.9508 31.5555 42.8633 31.7581C42.7758 31.9608 42.7298 32.181 42.7285 32.404V33.3333C42.7285 33.6802 42.5992 34.0128 42.369 34.258C42.1388 34.5033 41.8266 34.641 41.501 34.641C41.1754 34.641 40.8632 34.5033 40.633 34.258C40.4028 34.0128 40.2734 33.6802 40.2734 33.3333V32.404C40.2734 31.1887 40.771 30.0345 41.6368 29.2446L42.8988 28.0938C43.1867 27.8309 43.3921 27.4804 43.4874 27.0893C43.5827 26.6983 43.5632 26.2855 43.4316 25.9066C43.3 25.5277 43.0627 25.2008 42.7514 24.97C42.4402 24.7391 42.0701 24.6154 41.6909 24.6154H41.501ZM41.501 39C41.9351 39 42.3514 38.8163 42.6583 38.4893C42.9653 38.1623 43.1377 37.7188 43.1377 37.2564C43.1377 36.794 42.9653 36.3505 42.6583 36.0235C42.3514 35.6965 41.9351 35.5128 41.501 35.5128C41.0669 35.5128 40.6506 35.6965 40.3437 36.0235C40.0367 36.3505 39.8643 36.794 39.8643 37.2564C39.8643 37.7188 40.0367 38.1623 40.3437 38.4893C40.6506 38.8163 41.0669 39 41.501 39Z" fill="#5A8DC6"/>
<path d="M26 29.5C26 25.3891 27.633 21.4467 30.5398 18.5398C33.4467 15.633 37.3891 14 41.5 14C45.6109 14 49.5533 15.633 52.4602 18.5398C55.367 21.4467 57 25.3891 57 29.5C57 33.6109 55.367 37.5533 52.4602 40.4602C49.5533 43.367 45.6109 45 41.5 45C37.3891 45 33.4467 43.367 30.5398 40.4602C27.633 37.5533 26 33.6109 26 29.5ZM41.5 16.6571C39.8135 16.6571 38.1434 16.9893 36.5853 17.6347C35.0271 18.2802 33.6113 19.2262 32.4187 20.4187C31.2262 21.6113 30.2802 23.0271 29.6347 24.5853C28.9893 26.1434 28.6571 27.8135 28.6571 29.5C28.6571 31.1865 28.9893 32.8566 29.6347 34.4147C30.2802 35.9729 31.2262 37.3887 32.4187 38.5813C33.6113 39.7738 35.0271 40.7198 36.5853 41.3653C38.1434 42.0107 39.8135 42.3429 41.5 42.3429C44.9061 42.3429 48.1728 40.9898 50.5813 38.5813C52.9898 36.1728 54.3429 32.9061 54.3429 29.5C54.3429 26.0939 52.9898 22.8272 50.5813 20.4187C48.1728 18.0102 44.9061 16.6571 41.5 16.6571Z" fill="#5A8DC6"/>
<defs>
<filter id="filter0_d_2549_548" x="0" y="0" width="83" height="83" filterUnits="userSpaceOnUse" color-interpolation-filters="sRGB">
<feFlood flood-opacity="0" result="BackgroundImageFix"/>
<feColorMatrix in="SourceAlpha" type="matrix" values="0 0 0 0 0 0 0 0 0 0 0 0 0 0 0 0 0 0 127 0" result="hardAlpha"/>
<feOffset dy="4"/>
<feGaussianBlur stdDeviation="2"/>
<feComposite in2="hardAlpha" operator="out"/>
<feColorMatrix type="matrix" values="0 0 0 0 0 0 0 0 0 0 0 0 0 0 0 0 0 0 0.07 0"/>
<feBlend mode="normal" in2="BackgroundImageFix" result="effect1_dropShadow_2549_548"/>
<feBlend mode="normal" in="SourceGraphic" in2="effect1_dropShadow_2549_548" result="shape"/>
</filter>
</defs>
</svg>
