<svg width="83" height="83" viewBox="0 0 83 83" fill="none" xmlns="http://www.w3.org/2000/svg">
<g filter="url(#filter0_d_2515_375)">
<rect x="4" width="75" height="75" rx="15" fill="#F2F2F2"/>
</g>
<path d="M52.2083 19.1666H49.125V17.625C49.125 17.2161 48.9626 16.824 48.6735 16.5349C48.3843 16.2457 47.9922 16.0833 47.5833 16.0833C47.1745 16.0833 46.7823 16.2457 46.4932 16.5349C46.2041 16.824 46.0417 17.2161 46.0417 17.625V19.1666H36.7917V17.625C36.7917 17.2161 36.6292 16.824 36.3401 16.5349C36.051 16.2457 35.6589 16.0833 35.25 16.0833C34.8411 16.0833 34.449 16.2457 34.1599 16.5349C33.8708 16.824 33.7083 17.2161 33.7083 17.625V19.1666H30.625C29.3984 19.1666 28.222 19.6539 27.3546 20.5213C26.4873 21.3886 26 22.565 26 23.7916V42.2916C26 43.5183 26.4873 44.6947 27.3546 45.562C28.222 46.4294 29.3984 46.9166 30.625 46.9166H52.2083C53.435 46.9166 54.6113 46.4294 55.4787 45.562C56.3461 44.6947 56.8333 43.5183 56.8333 42.2916V23.7916C56.8333 22.565 56.3461 21.3886 55.4787 20.5213C54.6113 19.6539 53.435 19.1666 52.2083 19.1666ZM53.75 42.2916C53.75 42.7005 53.5876 43.0927 53.2985 43.3818C53.0093 43.6709 52.6172 43.8333 52.2083 43.8333H30.625C30.2161 43.8333 29.824 43.6709 29.5349 43.3818C29.2458 43.0927 29.0833 42.7005 29.0833 42.2916V31.5H53.75V42.2916ZM53.75 28.4166H29.0833V23.7916C29.0833 23.3828 29.2458 22.9906 29.5349 22.7015C29.824 22.4124 30.2161 22.25 30.625 22.25H33.7083V23.7916C33.7083 24.2005 33.8708 24.5927 34.1599 24.8818C34.449 25.1709 34.8411 25.3333 35.25 25.3333C35.6589 25.3333 36.051 25.1709 36.3401 24.8818C36.6292 24.5927 36.7917 24.2005 36.7917 23.7916V22.25H46.0417V23.7916C46.0417 24.2005 46.2041 24.5927 46.4932 24.8818C46.7823 25.1709 47.1745 25.3333 47.5833 25.3333C47.9922 25.3333 48.3843 25.1709 48.6735 24.8818C48.9626 24.5927 49.125 24.2005 49.125 23.7916V22.25H52.2083C52.6172 22.25 53.0093 22.4124 53.2985 22.7015C53.5876 22.9906 53.75 23.3828 53.75 23.7916V28.4166Z" fill="#5A8DC6"/>
<path d="M34.457 59.7871L36.791 63H35.3994L33.2461 59.9141H33.041V63H31.9033V55.4609H33.2363C34.2324 55.4609 34.9518 55.6481 35.3945 56.0225C35.8828 56.4391 36.127 56.9893 36.127 57.6729C36.127 58.2067 35.974 58.6657 35.668 59.0498C35.362 59.4339 34.9583 59.6797 34.457 59.7871ZM33.041 58.9229H33.4023C34.4798 58.9229 35.0186 58.5111 35.0186 57.6875C35.0186 56.916 34.4945 56.5303 33.4463 56.5303H33.041V58.9229ZM37.9287 63V55.4609H39.5107C40.2692 55.4609 40.8682 55.5358 41.3076 55.6855C41.7796 55.832 42.2077 56.0811 42.5918 56.4326C43.3698 57.1423 43.7588 58.0749 43.7588 59.2305C43.7588 60.3893 43.3535 61.3268 42.543 62.043C42.1361 62.401 41.7096 62.6501 41.2637 62.79C40.847 62.93 40.2562 63 39.4912 63H37.9287ZM39.0664 61.9307H39.5791C40.0902 61.9307 40.515 61.877 40.8535 61.7695C41.1921 61.6556 41.498 61.4749 41.7715 61.2275C42.3314 60.7165 42.6113 60.0508 42.6113 59.2305C42.6113 58.4036 42.3346 57.7331 41.7812 57.2188C41.2832 56.7598 40.5492 56.5303 39.5791 56.5303H39.0664V61.9307ZM45.292 55.4609L47.377 60.6855L49.4912 55.4609H50.7363L47.3525 63.5664L44.0469 55.4609H45.292Z" fill="#5A8DC6"/>
<defs>
<filter id="filter0_d_2515_375" x="0" y="0" width="83" height="83" filterUnits="userSpaceOnUse" color-interpolation-filters="sRGB">
<feFlood flood-opacity="0" result="BackgroundImageFix"/>
<feColorMatrix in="SourceAlpha" type="matrix" values="0 0 0 0 0 0 0 0 0 0 0 0 0 0 0 0 0 0 127 0" result="hardAlpha"/>
<feOffset dy="4"/>
<feGaussianBlur stdDeviation="2"/>
<feComposite in2="hardAlpha" operator="out"/>
<feColorMatrix type="matrix" values="0 0 0 0 0 0 0 0 0 0 0 0 0 0 0 0 0 0 0.07 0"/>
<feBlend mode="normal" in2="BackgroundImageFix" result="effect1_dropShadow_2515_375"/>
<feBlend mode="normal" in="SourceGraphic" in2="effect1_dropShadow_2515_375" result="shape"/>
</filter>
</defs>
</svg>
