<svg width="37" height="57" viewBox="0 0 37 57" fill="none" xmlns="http://www.w3.org/2000/svg">
<path d="M29.2083 10.1666H26.125V8.62498C26.125 8.2161 25.9626 7.82398 25.6735 7.53486C25.3843 7.24574 24.9922 7.08331 24.5833 7.08331C24.1745 7.08331 23.7823 7.24574 23.4932 7.53486C23.2041 7.82398 23.0417 8.2161 23.0417 8.62498V10.1666H13.7917V8.62498C13.7917 8.2161 13.6292 7.82398 13.3401 7.53486C13.051 7.24574 12.6589 7.08331 12.25 7.08331C11.8411 7.08331 11.449 7.24574 11.1599 7.53486C10.8708 7.82398 10.7083 8.2161 10.7083 8.62498V10.1666H7.625C6.39837 10.1666 5.22199 10.6539 4.35463 11.5213C3.48728 12.3886 3 13.565 3 14.7916V33.2916C3 34.5183 3.48728 35.6947 4.35463 36.562C5.22199 37.4294 6.39837 37.9166 7.625 37.9166H29.2083C30.435 37.9166 31.6113 37.4294 32.4787 36.562C33.3461 35.6947 33.8333 34.5183 33.8333 33.2916V14.7916C33.8333 13.565 33.3461 12.3886 32.4787 11.5213C31.6113 10.6539 30.435 10.1666 29.2083 10.1666ZM30.75 33.2916C30.75 33.7005 30.5876 34.0927 30.2985 34.3818C30.0093 34.6709 29.6172 34.8333 29.2083 34.8333H7.625C7.21613 34.8333 6.824 34.6709 6.53488 34.3818C6.24576 34.0927 6.08333 33.7005 6.08333 33.2916V22.5H30.75V33.2916ZM30.75 19.4166H6.08333V14.7916C6.08333 14.3828 6.24576 13.9906 6.53488 13.7015C6.824 13.4124 7.21613 13.25 7.625 13.25H10.7083V14.7916C10.7083 15.2005 10.8708 15.5927 11.1599 15.8818C11.449 16.1709 11.8411 16.3333 12.25 16.3333C12.6589 16.3333 13.051 16.1709 13.3401 15.8818C13.6292 15.5927 13.7917 15.2005 13.7917 14.7916V13.25H23.0417V14.7916C23.0417 15.2005 23.2041 15.5927 23.4932 15.8818C23.7823 16.1709 24.1745 16.3333 24.5833 16.3333C24.9922 16.3333 25.3843 16.1709 25.6735 15.8818C25.9626 15.5927 26.125 15.2005 26.125 14.7916V13.25H29.2083C29.6172 13.25 30.0093 13.4124 30.2985 13.7015C30.5876 13.9906 30.75 14.3828 30.75 14.7916V19.4166Z" fill="#5A8DC6"/>
<path d="M6.46875 52.1689H3.24121L2.40137 54H1.17578L4.90625 45.9873L8.50488 54H7.25977L6.46875 52.1689ZM6.00488 51.0996L4.88672 48.5361L3.71484 51.0996H6.00488ZM13.8418 53.8877C13.8418 54.1123 13.8337 54.3092 13.8174 54.4785C13.8044 54.651 13.7848 54.8024 13.7588 54.9326C13.6807 55.2907 13.5277 55.5983 13.2998 55.8555C12.8701 56.3503 12.2793 56.5977 11.5273 56.5977C10.8926 56.5977 10.3701 56.4268 9.95996 56.085C9.53678 55.7334 9.29264 55.2467 9.22754 54.625H10.3311C10.3734 54.8594 10.4434 55.04 10.541 55.167C10.7689 55.4632 11.1009 55.6113 11.5371 55.6113C12.3411 55.6113 12.7432 55.1182 12.7432 54.1318V53.4678C12.307 53.9137 11.804 54.1367 11.2344 54.1367C10.5866 54.1367 10.056 53.9023 9.64258 53.4336C9.22591 52.9583 9.01758 52.3643 9.01758 51.6514C9.01758 50.958 9.21126 50.3688 9.59863 49.8838C10.0153 49.3695 10.5654 49.1123 11.249 49.1123C11.848 49.1123 12.346 49.3353 12.7432 49.7812V49.2441H13.8418V53.8877ZM12.7871 51.6318C12.7871 51.1696 12.6634 50.8001 12.416 50.5234C12.1654 50.2402 11.8447 50.0986 11.4541 50.0986C11.0374 50.0986 10.7087 50.2533 10.4678 50.5625C10.2497 50.8392 10.1406 51.1973 10.1406 51.6367C10.1406 52.0697 10.2497 52.4245 10.4678 52.7012C10.7054 53.0039 11.0342 53.1553 11.4541 53.1553C11.874 53.1553 12.2061 53.0023 12.4502 52.6963C12.6748 52.4196 12.7871 52.0648 12.7871 51.6318ZM19.5596 51.8809H16.1514C16.1807 52.2715 16.3076 52.5824 16.5322 52.8135C16.7568 53.0413 17.0449 53.1553 17.3965 53.1553C17.6699 53.1553 17.8962 53.0902 18.0752 52.96C18.251 52.8298 18.4512 52.5889 18.6758 52.2373L19.6035 52.7549C19.4603 52.999 19.3089 53.209 19.1494 53.3848C18.9899 53.5573 18.819 53.7005 18.6367 53.8145C18.4544 53.9251 18.2575 54.0065 18.0459 54.0586C17.8343 54.1107 17.6048 54.1367 17.3574 54.1367C16.6478 54.1367 16.0781 53.9089 15.6484 53.4531C15.2188 52.9941 15.0039 52.3854 15.0039 51.627C15.0039 50.875 15.2122 50.2663 15.6289 49.8008C16.0488 49.3418 16.6055 49.1123 17.2988 49.1123C17.9987 49.1123 18.5521 49.3353 18.959 49.7812C19.3626 50.224 19.5645 50.8376 19.5645 51.6221L19.5596 51.8809ZM18.4316 50.9824C18.2786 50.3965 17.9092 50.1035 17.3232 50.1035C17.1898 50.1035 17.0645 50.1247 16.9473 50.167C16.8301 50.2061 16.7227 50.2646 16.625 50.3428C16.5306 50.4176 16.4492 50.5088 16.3809 50.6162C16.3125 50.7236 16.2604 50.8457 16.2246 50.9824H18.4316ZM20.7656 49.2441H21.8691V49.6836C22.2533 49.3027 22.6862 49.1123 23.168 49.1123C23.7214 49.1123 24.1527 49.2865 24.4619 49.6348C24.7288 49.931 24.8623 50.4144 24.8623 51.085V54H23.7588V51.3438C23.7588 50.875 23.6937 50.5511 23.5635 50.3721C23.4365 50.1898 23.2054 50.0986 22.8701 50.0986C22.5055 50.0986 22.2467 50.2191 22.0938 50.46C21.944 50.6976 21.8691 51.1126 21.8691 51.7051V54H20.7656V49.2441ZM29.9551 49.4492V50.9092C29.7044 50.6032 29.4798 50.3932 29.2812 50.2793C29.0859 50.1621 28.8564 50.1035 28.5928 50.1035C28.1794 50.1035 27.8359 50.2484 27.5625 50.5381C27.2891 50.8278 27.1523 51.1908 27.1523 51.627C27.1523 52.0729 27.2842 52.4391 27.5479 52.7256C27.8148 53.012 28.1549 53.1553 28.5684 53.1553C28.832 53.1553 29.0648 53.0983 29.2666 52.9844C29.4619 52.8737 29.6914 52.6589 29.9551 52.3398V53.79C29.5091 54.0212 29.0632 54.1367 28.6172 54.1367C27.8815 54.1367 27.2663 53.8991 26.7715 53.4238C26.2767 52.9453 26.0293 52.3512 26.0293 51.6416C26.0293 50.932 26.2799 50.333 26.7812 49.8447C27.2826 49.3564 27.8978 49.1123 28.627 49.1123C29.0957 49.1123 29.5384 49.2246 29.9551 49.4492ZM35.3506 51.8809H31.9424C31.9717 52.2715 32.0986 52.5824 32.3232 52.8135C32.5479 53.0413 32.8359 53.1553 33.1875 53.1553C33.4609 53.1553 33.6872 53.0902 33.8662 52.96C34.042 52.8298 34.2422 52.5889 34.4668 52.2373L35.3945 52.7549C35.2513 52.999 35.0999 53.209 34.9404 53.3848C34.7809 53.5573 34.61 53.7005 34.4277 53.8145C34.2454 53.9251 34.0485 54.0065 33.8369 54.0586C33.6253 54.1107 33.3958 54.1367 33.1484 54.1367C32.4388 54.1367 31.8691 53.9089 31.4395 53.4531C31.0098 52.9941 30.7949 52.3854 30.7949 51.627C30.7949 50.875 31.0033 50.2663 31.4199 49.8008C31.8398 49.3418 32.3965 49.1123 33.0898 49.1123C33.7897 49.1123 34.3431 49.3353 34.75 49.7812C35.1536 50.224 35.3555 50.8376 35.3555 51.6221L35.3506 51.8809ZM34.2227 50.9824C34.0697 50.3965 33.7002 50.1035 33.1143 50.1035C32.9808 50.1035 32.8555 50.1247 32.7383 50.167C32.6211 50.2061 32.5137 50.2646 32.416 50.3428C32.3216 50.4176 32.2402 50.5088 32.1719 50.6162C32.1035 50.7236 32.0514 50.8457 32.0156 50.9824H34.2227Z" fill="#5A8DC6"/>
</svg>
