<svg width="18" height="18" viewBox="0 0 18 18" fill="none" xmlns="http://www.w3.org/2000/svg">
<path d="M5 10.5H13C14.1189 10.5 15.195 10.9166 16.0205 11.6641L16.1816 11.8184C17.0256 12.6623 17.5 13.8065 17.5 15C17.5 15.663 17.2364 16.2987 16.7676 16.7676C16.2987 17.2364 15.663 17.5 15 17.5H3C2.41989 17.5 1.86086 17.298 1.41602 16.9336L1.23242 16.7676C0.763581 16.2987 0.5 15.663 0.5 15C0.5 13.8065 0.974446 12.6623 1.81836 11.8184C2.66227 10.9744 3.80653 10.5 5 10.5ZM9 0.5C9.87008 0.5 10.7066 0.824121 11.3486 1.40527L11.4746 1.52539C12.131 2.18177 12.5 3.07174 12.5 4C12.5 4.92826 12.131 5.81823 11.4746 6.47461C10.8182 7.13099 9.92826 7.5 9 7.5C8.07174 7.5 7.18177 7.13099 6.52539 6.47461C5.86901 5.81823 5.5 4.92826 5.5 4C5.5 3.12992 5.82412 2.29336 6.40527 1.65137L6.52539 1.52539C7.18177 0.869013 8.07174 0.5 9 0.5Z" stroke="#8D8F9B"/>
</svg>
