<svg width="20" height="20" viewBox="0 0 20 20" fill="none" xmlns="http://www.w3.org/2000/svg">
<path d="M10 0.5C10.2763 0.5 10.5399 0.592061 10.7471 0.754883L10.832 0.829102L19.165 8.8291C19.3817 9.03696 19.4998 9.31472 19.5 9.59961V19.2002C19.4999 19.273 19.4695 19.3473 19.4092 19.4053C19.3482 19.4636 19.2615 19.4999 19.167 19.5H13.333C13.2385 19.4999 13.1518 19.4636 13.0908 19.4053C13.0305 19.3474 13.0001 19.273 13 19.2002V14C13 13.7853 12.9221 13.5814 12.7861 13.4219L12.7246 13.3564L12.6562 13.2979C12.4927 13.1692 12.2901 13.0996 12.083 13.0996H7.91699C7.70991 13.0996 7.50729 13.1692 7.34375 13.2979L7.27539 13.3564C7.10155 13.5235 7 13.7547 7 14V19.2002C6.99995 19.2547 6.98298 19.3098 6.94922 19.3584L6.90918 19.4053C6.84818 19.4636 6.7615 19.4999 6.66699 19.5H0.833008C0.761916 19.4999 0.695283 19.4793 0.640625 19.4443L0.59082 19.4053C0.530484 19.3473 0.500062 19.273 0.5 19.2002V9.59961L0.505859 9.49316C0.527869 9.28165 0.614083 9.07835 0.757812 8.91016L0.834961 8.8291L9.16797 0.829102C9.38532 0.620569 9.68429 0.5 10 0.5Z" stroke="#8D8F9B"/>
</svg>
