<svg width="18" height="20" viewBox="0 0 18 20" fill="none" xmlns="http://www.w3.org/2000/svg">
<path d="M2.09375 0.674805H13.7812C13.9211 0.674805 14.06 0.695834 14.1934 0.736328L14.3242 0.783203C14.4534 0.836731 14.5739 0.908651 14.6816 0.99707L14.7842 1.09082C14.883 1.18961 14.9666 1.30205 15.0322 1.4248L15.0918 1.55078C15.1631 1.72291 15.2002 1.90744 15.2002 2.09375V16.875L15.2109 17.125C15.2523 17.6218 15.4145 18.1009 15.6836 18.5205L15.8271 18.7256C16.0026 18.9554 16.21 19.1555 16.4395 19.3252H2.78125C2.29236 19.3252 1.82113 19.1549 1.44629 18.8477L1.29199 18.708C0.896994 18.313 0.674805 17.7774 0.674805 17.2188V2.09375C0.674805 1.71747 0.824753 1.35689 1.09082 1.09082C1.35689 0.824753 1.71747 0.674805 2.09375 0.674805ZM3.71289 14.5176C3.61344 14.5277 3.51607 14.5533 3.42383 14.5928C3.30106 14.6454 3.18983 14.7217 3.09766 14.8184C3.02849 14.8909 2.9709 14.9739 2.92676 15.0635L2.88672 15.1553C2.85178 15.2491 2.8315 15.3477 2.82617 15.4473V15.5479C2.85312 16.0874 3.31232 16.4873 3.83203 16.4873H12.0625C12.1962 16.4873 12.3283 16.4599 12.4512 16.4072C12.5739 16.3546 12.6852 16.2783 12.7773 16.1816C12.8696 16.0849 12.9416 15.97 12.9883 15.8447C13.0232 15.7509 13.0435 15.6523 13.0488 15.5527V15.4521C13.0219 14.9126 12.5627 14.5127 12.043 14.5127H3.8125L3.71289 14.5176ZM3.71289 11.7676C3.61344 11.7777 3.51607 11.8033 3.42383 11.8428C3.30106 11.8954 3.18983 11.9717 3.09766 12.0684C3.02849 12.1409 2.9709 12.2239 2.92676 12.3135L2.88672 12.4053C2.85178 12.4991 2.8315 12.5977 2.82617 12.6973V12.7979C2.85312 13.3374 3.31232 13.7373 3.83203 13.7373H12.0625C12.1962 13.7373 12.3283 13.7099 12.4512 13.6572C12.5739 13.6046 12.6852 13.5283 12.7773 13.4316C12.8696 13.3349 12.9416 13.22 12.9883 13.0947C13.0232 13.0009 13.0435 12.9023 13.0488 12.8027V12.7021C13.0219 12.1626 12.5627 11.7627 12.043 11.7627H3.8125L3.71289 11.7676ZM3.71289 9.01758C3.61344 9.02767 3.51607 9.05325 3.42383 9.09277C3.30105 9.14538 3.18983 9.22169 3.09766 9.31836C3.02849 9.39094 2.97091 9.47389 2.92676 9.56348L2.88672 9.65527C2.85178 9.74911 2.8315 9.84766 2.82617 9.94727V10.0479C2.85312 10.5874 3.31232 10.9873 3.83203 10.9873H12.0625C12.1962 10.9873 12.3283 10.9599 12.4512 10.9072C12.5739 10.8546 12.6852 10.7783 12.7773 10.6816C12.8696 10.5849 12.9416 10.47 12.9883 10.3447C13.0232 10.2509 13.0435 10.1523 13.0488 10.0527V9.95215C13.0219 9.4126 12.5627 9.0127 12.043 9.0127H3.8125L3.71289 9.01758ZM3.8125 3.5127C3.5506 3.5127 3.29945 3.61657 3.11426 3.80176C2.92907 3.98695 2.8252 4.2381 2.8252 4.5V7.25C2.8252 7.47924 2.90476 7.70023 3.04883 7.87598L3.11426 7.94824C3.29945 8.13343 3.5506 8.2373 3.8125 8.2373H6.5625C6.79174 8.2373 7.01273 8.15774 7.18848 8.01367L7.26074 7.94824C7.44593 7.76305 7.5498 7.5119 7.5498 7.25V4.5C7.5498 4.27076 7.47024 4.04977 7.32617 3.87402L7.26074 3.80176C7.07555 3.61657 6.8244 3.5127 6.5625 3.5127H3.8125ZM9.21289 6.26758C9.1466 6.2743 9.08117 6.28771 9.01758 6.30762L8.92383 6.34277C8.80106 6.39538 8.68983 6.47169 8.59766 6.56836C8.52849 6.64094 8.47091 6.72389 8.42676 6.81348L8.38672 6.90527C8.35178 6.99911 8.3315 7.09766 8.32617 7.19727V7.29785C8.35312 7.8374 8.81232 8.2373 9.33203 8.2373H12.0625C12.1627 8.2373 12.2622 8.2222 12.3574 8.19238L12.4512 8.15723C12.5739 8.10462 12.6852 8.02831 12.7773 7.93164C12.8465 7.85906 12.9041 7.77611 12.9482 7.68652L12.9883 7.59473C13.0232 7.50089 13.0435 7.40234 13.0488 7.30273V7.20215C13.0219 6.6626 12.5627 6.2627 12.043 6.2627H9.3125L9.21289 6.26758ZM9.21289 3.51758C9.1466 3.5243 9.08117 3.53771 9.01758 3.55762L8.92383 3.59277C8.80106 3.64538 8.68983 3.72169 8.59766 3.81836C8.52849 3.89094 8.47091 3.97389 8.42676 4.06348L8.38672 4.15527C8.35178 4.24911 8.3315 4.34766 8.32617 4.44727V4.54785C8.35312 5.0874 8.81232 5.4873 9.33203 5.4873H12.0625C12.1627 5.4873 12.2622 5.4722 12.3574 5.44238L12.4512 5.40723C12.5739 5.35462 12.6852 5.27831 12.7773 5.18164C12.8465 5.10906 12.9041 5.02611 12.9482 4.93652L12.9883 4.84473C13.0232 4.75089 13.0435 4.65234 13.0488 4.55273V4.45215C13.0219 3.9126 12.5627 3.5127 12.043 3.5127H9.3125L9.21289 3.51758Z" stroke="#8D8F9B" stroke-width="0.6"/>
</svg>
