<svg width="24" height="6" viewBox="0 0 24 6" fill="none" xmlns="http://www.w3.org/2000/svg">
<path d="M14.125 3C14.125 3.42029 14.0004 3.83113 13.7669 4.18059C13.5334 4.53004 13.2015 4.80241 12.8132 4.96324C12.4249 5.12408 11.9976 5.16616 11.5854 5.08417C11.1732 5.00218 10.7946 4.79979 10.4974 4.5026C10.2002 4.20542 9.99783 3.82678 9.91583 3.41457C9.83384 3.00236 9.87592 2.57509 10.0368 2.1868C10.1976 1.79851 10.47 1.46663 10.8194 1.23313C11.1689 0.999629 11.5797 0.875 12 0.875C12.5636 0.875 13.1041 1.09888 13.5026 1.4974C13.9011 1.89591 14.125 2.43641 14.125 3ZM2.96875 0.875C2.54847 0.875 2.13762 0.999629 1.78816 1.23313C1.43871 1.46663 1.16634 1.79851 1.00551 2.1868C0.844671 2.57509 0.802589 3.00236 0.884582 3.41457C0.966576 3.82678 1.16896 4.20542 1.46615 4.5026C1.76334 4.79979 2.14197 5.00218 2.55418 5.08417C2.96639 5.16616 3.39366 5.12408 3.78195 4.96324C4.17025 4.80241 4.50213 4.53004 4.73562 4.18059C4.96912 3.83113 5.09375 3.42029 5.09375 3C5.09375 2.43641 4.86987 1.89591 4.47135 1.4974C4.07284 1.09888 3.53234 0.875 2.96875 0.875ZM21.0313 0.875C20.611 0.875 20.2001 0.999629 19.8507 1.23313C19.5012 1.46663 19.2288 1.79851 19.068 2.1868C18.9072 2.57509 18.8651 3.00236 18.9471 3.41457C19.0291 3.82678 19.2315 4.20542 19.5287 4.5026C19.8258 4.79979 20.2045 5.00218 20.6167 5.08417C21.0289 5.16616 21.4562 5.12408 21.8445 4.96324C22.2327 4.80241 22.5646 4.53004 22.7981 4.18059C23.0316 3.83113 23.1563 3.42029 23.1563 3C23.1563 2.43641 22.9324 1.89591 22.5339 1.4974C22.1353 1.09888 21.5948 0.875 21.0313 0.875Z" fill="#8D8F9B"/>
</svg>
