<svg width="23" height="23" viewBox="0 0 23 23" fill="none" xmlns="http://www.w3.org/2000/svg">
<path d="M20.4844 11.5C20.4844 11.7859 20.3708 12.0602 20.1686 12.2623C19.9664 12.4645 19.6922 12.5781 19.4062 12.5781H12.5781V19.4062C12.5781 19.6922 12.4645 19.9664 12.2623 20.1686C12.0602 20.3708 11.7859 20.4844 11.5 20.4844C11.2141 20.4844 10.9398 20.3708 10.7376 20.1686C10.5355 19.9664 10.4219 19.6922 10.4219 19.4062V12.5781H3.59375C3.30781 12.5781 3.03359 12.4645 2.8314 12.2623C2.62921 12.0602 2.51562 11.7859 2.51562 11.5C2.51562 11.2141 2.62921 10.9398 2.8314 10.7376C3.03359 10.5355 3.30781 10.4219 3.59375 10.4219H10.4219V3.59375C10.4219 3.30781 10.5355 3.03359 10.7376 2.8314C10.9398 2.62921 11.2141 2.51563 11.5 2.51562C11.7859 2.51562 12.0602 2.62921 12.2623 2.8314C12.4645 3.03359 12.5781 3.30781 12.5781 3.59375V10.4219H19.4062C19.6922 10.4219 19.9664 10.5355 20.1686 10.7376C20.3708 10.9398 20.4844 11.2141 20.4844 11.5Z" fill="#F3F6FB"/>
</svg>
