<svg width="37" height="50" viewBox="0 0 37 50" fill="none" xmlns="http://www.w3.org/2000/svg">
<path d="M11.7435 21.1323C8.51761 17.9001 6.03677 14.0022 4.4745 9.71127C3.615 7.36527 4.4025 4.78827 6.1695 3.02127L7.263 1.92927C7.55698 1.63469 7.90617 1.40099 8.29058 1.24153C8.67499 1.08208 9.08708 1 9.50325 1C9.91942 1 10.3315 1.08208 10.7159 1.24153C11.1003 1.40099 11.4495 1.63469 11.7435 1.92927L14.304 4.48977C14.5986 4.78375 14.8323 5.13294 14.9917 5.51735C15.1512 5.90176 15.2333 6.31385 15.2333 6.73002C15.2333 7.14619 15.1512 7.55827 14.9917 7.94268C14.8323 8.3271 14.5986 8.67629 14.304 8.97027L13.674 9.60027C13.4218 9.85239 13.2218 10.1517 13.0853 10.4811C12.9488 10.8106 12.8786 11.1637 12.8786 11.5203C12.8786 11.8769 12.9488 12.2299 13.0853 12.5594C13.2218 12.8888 13.4218 13.1881 13.674 13.4403L19.434 19.2018C19.6861 19.4539 19.9854 19.654 20.3149 19.7905C20.6443 19.9269 20.9974 19.9972 21.354 19.9972C21.7106 19.9972 22.0637 19.9269 22.3931 19.7905C22.7226 19.654 23.0219 19.4539 23.274 19.2018L23.9055 18.5718C24.1995 18.2772 24.5487 18.0435 24.9331 17.884C25.3175 17.7246 25.7296 17.6425 26.1457 17.6425C26.5619 17.6425 26.974 17.7246 27.3584 17.884C27.7428 18.0435 28.092 18.2772 28.386 18.5718L30.9465 21.1323C31.2411 21.4262 31.4748 21.7754 31.6342 22.1598C31.7937 22.5443 31.8758 22.9563 31.8758 23.3725C31.8758 23.7887 31.7937 24.2008 31.6342 24.5852C31.4748 24.9696 31.2411 25.3188 30.9465 25.6128L29.8545 26.7048C28.0875 28.4733 25.5105 29.2608 23.1645 28.4013C18.8735 26.839 14.9757 24.3582 11.7435 21.1323Z" stroke="#5A8DC6" stroke-width="2" stroke-linejoin="round"/>
<path d="M5.47754 45.1689H2.25L1.41016 47H0.18457L3.91504 38.9873L7.51367 47H6.26855L5.47754 45.1689ZM5.01367 44.0996L3.89551 41.5361L2.72363 44.0996H5.01367ZM9.34961 49.5879H8.25098V42.2441H9.34961V42.7617C9.78255 42.3288 10.2741 42.1123 10.8242 42.1123C11.4785 42.1123 12.0173 42.3532 12.4404 42.835C12.8701 43.3135 13.085 43.9173 13.085 44.6465C13.085 45.3594 12.8717 45.9535 12.4453 46.4287C12.0221 46.9007 11.4883 47.1367 10.8438 47.1367C10.2871 47.1367 9.78906 46.9137 9.34961 46.4678V49.5879ZM11.9619 44.6514C11.9619 44.1956 11.8382 43.8245 11.5908 43.5381C11.3402 43.2484 11.0244 43.1035 10.6436 43.1035C10.2399 43.1035 9.91276 43.2435 9.66211 43.5234C9.41146 43.8034 9.28613 44.1712 9.28613 44.627C9.28613 45.0729 9.41146 45.4408 9.66211 45.7305C9.90951 46.0137 10.235 46.1553 10.6387 46.1553C11.0195 46.1553 11.3337 46.012 11.5811 45.7256C11.835 45.4391 11.9619 45.0811 11.9619 44.6514ZM15.3457 49.5879H14.2471V42.2441H15.3457V42.7617C15.7786 42.3288 16.2702 42.1123 16.8203 42.1123C17.4746 42.1123 18.0133 42.3532 18.4365 42.835C18.8662 43.3135 19.0811 43.9173 19.0811 44.6465C19.0811 45.3594 18.8678 45.9535 18.4414 46.4287C18.0182 46.9007 17.4844 47.1367 16.8398 47.1367C16.2832 47.1367 15.7852 46.9137 15.3457 46.4678V49.5879ZM17.958 44.6514C17.958 44.1956 17.8343 43.8245 17.5869 43.5381C17.3363 43.2484 17.0205 43.1035 16.6396 43.1035C16.236 43.1035 15.9089 43.2435 15.6582 43.5234C15.4076 43.8034 15.2822 44.1712 15.2822 44.627C15.2822 45.0729 15.4076 45.4408 15.6582 45.7305C15.9056 46.0137 16.2311 46.1553 16.6348 46.1553C17.0156 46.1553 17.3298 46.012 17.5771 45.7256C17.8311 45.4391 17.958 45.0811 17.958 44.6514ZM24.5742 44.8809H21.166C21.1953 45.2715 21.3223 45.5824 21.5469 45.8135C21.7715 46.0413 22.0596 46.1553 22.4111 46.1553C22.6846 46.1553 22.9108 46.0902 23.0898 45.96C23.2656 45.8298 23.4658 45.5889 23.6904 45.2373L24.6182 45.7549C24.4749 45.999 24.3236 46.209 24.1641 46.3848C24.0046 46.5573 23.8337 46.7005 23.6514 46.8145C23.4691 46.9251 23.2721 47.0065 23.0605 47.0586C22.849 47.1107 22.6195 47.1367 22.3721 47.1367C21.6624 47.1367 21.0928 46.9089 20.6631 46.4531C20.2334 45.9941 20.0186 45.3854 20.0186 44.627C20.0186 43.875 20.2269 43.2663 20.6436 42.8008C21.0635 42.3418 21.6201 42.1123 22.3135 42.1123C23.0133 42.1123 23.5667 42.3353 23.9736 42.7812C24.3773 43.224 24.5791 43.8376 24.5791 44.6221L24.5742 44.8809ZM23.4463 43.9824C23.2933 43.3965 22.9238 43.1035 22.3379 43.1035C22.2044 43.1035 22.0791 43.1247 21.9619 43.167C21.8447 43.2061 21.7373 43.2646 21.6396 43.3428C21.5452 43.4176 21.4639 43.5088 21.3955 43.6162C21.3271 43.7236 21.2751 43.8457 21.2393 43.9824H23.4463ZM26.8789 38.7529V47H25.7803V38.7529H26.8789ZM32.6016 44.8809H29.1934C29.2227 45.2715 29.3496 45.5824 29.5742 45.8135C29.7988 46.0413 30.0869 46.1553 30.4385 46.1553C30.7119 46.1553 30.9382 46.0902 31.1172 45.96C31.293 45.8298 31.4932 45.5889 31.7178 45.2373L32.6455 45.7549C32.5023 45.999 32.3509 46.209 32.1914 46.3848C32.0319 46.5573 31.861 46.7005 31.6787 46.8145C31.4964 46.9251 31.2995 47.0065 31.0879 47.0586C30.8763 47.1107 30.6468 47.1367 30.3994 47.1367C29.6898 47.1367 29.1201 46.9089 28.6904 46.4531C28.2607 45.9941 28.0459 45.3854 28.0459 44.627C28.0459 43.875 28.2542 43.2663 28.6709 42.8008C29.0908 42.3418 29.6475 42.1123 30.3408 42.1123C31.0407 42.1123 31.5941 42.3353 32.001 42.7812C32.4046 43.224 32.6064 43.8376 32.6064 44.6221L32.6016 44.8809ZM31.4736 43.9824C31.3206 43.3965 30.9512 43.1035 30.3652 43.1035C30.2318 43.1035 30.1064 43.1247 29.9893 43.167C29.8721 43.2061 29.7646 43.2646 29.667 43.3428C29.5726 43.4176 29.4912 43.5088 29.4229 43.6162C29.3545 43.7236 29.3024 43.8457 29.2666 43.9824H31.4736ZM33.8076 42.2441H34.9062V42.6689C35.1081 42.4574 35.2871 42.3125 35.4434 42.2344C35.6029 42.153 35.7917 42.1123 36.0098 42.1123C36.2995 42.1123 36.6022 42.2067 36.918 42.3955L36.415 43.4014C36.2067 43.2516 36.0033 43.1768 35.8047 43.1768C35.2057 43.1768 34.9062 43.6292 34.9062 44.5342V47H33.8076V42.2441Z" fill="#5A8DC6"/>
</svg>
