<svg width="37" height="55" viewBox="0 0 37 55" fill="none" xmlns="http://www.w3.org/2000/svg">
<path d="M29.2083 10.1666H26.125V8.62498C26.125 8.2161 25.9626 7.82398 25.6735 7.53486C25.3843 7.24574 24.9922 7.08331 24.5833 7.08331C24.1745 7.08331 23.7823 7.24574 23.4932 7.53486C23.2041 7.82398 23.0417 8.2161 23.0417 8.62498V10.1666H13.7917V8.62498C13.7917 8.2161 13.6292 7.82398 13.3401 7.53486C13.051 7.24574 12.6589 7.08331 12.25 7.08331C11.8411 7.08331 11.449 7.24574 11.1599 7.53486C10.8708 7.82398 10.7083 8.2161 10.7083 8.62498V10.1666H7.625C6.39837 10.1666 5.22199 10.6539 4.35463 11.5213C3.48728 12.3886 3 13.565 3 14.7916V33.2916C3 34.5183 3.48728 35.6947 4.35463 36.562C5.22199 37.4294 6.39837 37.9166 7.625 37.9166H29.2083C30.435 37.9166 31.6113 37.4294 32.4787 36.562C33.3461 35.6947 33.8333 34.5183 33.8333 33.2916V14.7916C33.8333 13.565 33.3461 12.3886 32.4787 11.5213C31.6113 10.6539 30.435 10.1666 29.2083 10.1666ZM30.75 33.2916C30.75 33.7005 30.5876 34.0927 30.2985 34.3818C30.0093 34.6709 29.6172 34.8333 29.2083 34.8333H7.625C7.21613 34.8333 6.824 34.6709 6.53488 34.3818C6.24576 34.0927 6.08333 33.7005 6.08333 33.2916V22.5H30.75V33.2916ZM30.75 19.4166H6.08333V14.7916C6.08333 14.3828 6.24576 13.9906 6.53488 13.7015C6.824 13.4124 7.21613 13.25 7.625 13.25H10.7083V14.7916C10.7083 15.2005 10.8708 15.5927 11.1599 15.8818C11.449 16.1709 11.8411 16.3333 12.25 16.3333C12.6589 16.3333 13.051 16.1709 13.3401 15.8818C13.6292 15.5927 13.7917 15.2005 13.7917 14.7916V13.25H23.0417V14.7916C23.0417 15.2005 23.2041 15.5927 23.4932 15.8818C23.7823 16.1709 24.1745 16.3333 24.5833 16.3333C24.9922 16.3333 25.3843 16.1709 25.6735 15.8818C25.9626 15.5927 26.125 15.2005 26.125 14.7916V13.25H29.2083C29.6172 13.25 30.0093 13.4124 30.2985 13.7015C30.5876 13.9906 30.75 14.3828 30.75 14.7916V19.4166Z" fill="#5A8DC6"/>
<path d="M11.457 50.7871L13.791 54H12.3994L10.2461 50.9141H10.041V54H8.90332V46.4609H10.2363C11.2324 46.4609 11.9518 46.6481 12.3945 47.0225C12.8828 47.4391 13.127 47.9893 13.127 48.6729C13.127 49.2067 12.974 49.6657 12.668 50.0498C12.362 50.4339 11.9583 50.6797 11.457 50.7871ZM10.041 49.9229H10.4023C11.4798 49.9229 12.0186 49.5111 12.0186 48.6875C12.0186 47.916 11.4945 47.5303 10.4463 47.5303H10.041V49.9229ZM14.9287 54V46.4609H16.5107C17.2692 46.4609 17.8682 46.5358 18.3076 46.6855C18.7796 46.832 19.2077 47.0811 19.5918 47.4326C20.3698 48.1423 20.7588 49.0749 20.7588 50.2305C20.7588 51.3893 20.3535 52.3268 19.543 53.043C19.1361 53.401 18.7096 53.6501 18.2637 53.79C17.847 53.93 17.2562 54 16.4912 54H14.9287ZM16.0664 52.9307H16.5791C17.0902 52.9307 17.515 52.877 17.8535 52.7695C18.1921 52.6556 18.498 52.4749 18.7715 52.2275C19.3314 51.7165 19.6113 51.0508 19.6113 50.2305C19.6113 49.4036 19.3346 48.7331 18.7812 48.2188C18.2832 47.7598 17.5492 47.5303 16.5791 47.5303H16.0664V52.9307ZM22.292 46.4609L24.377 51.6855L26.4912 46.4609H27.7363L24.3525 54.5664L21.0469 46.4609H22.292Z" fill="#5A8DC6"/>
</svg>
